<svg xmlns="http://www.w3.org/2000/svg" fill="none" viewBox="-2.5 -2.5 45 45" height="45" width="45"><g id="bullet-list--points-bullet-unordered-list-lists-bullets"><path id="Vector" stroke="#000000" stroke-linecap="round" stroke-linejoin="round" d="M2.857142857142857 8.571428571428571c0.7889714285714285 0 1.4285714285714286 -0.6396000000000001 1.4285714285714286 -1.4285714285714286S3.646114285714286 5.714285714285714 2.857142857142857 5.714285714285714c-0.7889771428571428 0 -1.4285714285714286 0.6396000000000001 -1.4285714285714286 1.4285714285714286s0.6395942857142858 1.4285714285714286 1.4285714285714286 1.4285714285714286Z" stroke-width="5"></path><path id="Vector_2" stroke="#000000" stroke-linecap="round" stroke-linejoin="round" d="M12.857142857142858 7.142857142857143h25.714285714285715" stroke-width="5"></path><path id="Vector_3" stroke="#000000" stroke-linecap="round" stroke-linejoin="round" d="M2.857142857142857 21.42857142857143c0.7889714285714285 0 1.4285714285714286 -0.6396000000000001 1.4285714285714286 -1.4285714285714286s-0.6396000000000001 -1.4285714285714286 -1.4285714285714286 -1.4285714285714286c-0.7889771428571428 0 -1.4285714285714286 0.6396000000000001 -1.4285714285714286 1.4285714285714286s0.6395942857142858 1.4285714285714286 1.4285714285714286 1.4285714285714286Z" stroke-width="5"></path><path id="Vector_4" stroke="#000000" stroke-linecap="round" stroke-linejoin="round" d="M12.857142857142858 20h25.714285714285715" stroke-width="5"></path><path id="Vector_5" stroke="#000000" stroke-linecap="round" stroke-linejoin="round" d="M2.857142857142857 34.285714285714285c0.7889714285714285 0 1.4285714285714286 -0.6397142857142857 1.4285714285714286 -1.4285714285714286S3.646114285714286 31.42857142857143 2.857142857142857 31.42857142857143c-0.7889771428571428 0 -1.4285714285714286 0.6397142857142857 -1.4285714285714286 1.4285714285714286s0.6395942857142858 1.4285714285714286 1.4285714285714286 1.4285714285714286Z" stroke-width="5"></path><path id="Vector_6" stroke="#000000" stroke-linecap="round" stroke-linejoin="round" d="M12.857142857142858 32.85714285714286h25.714285714285715" stroke-width="5"></path></g></svg>