<svg xmlns="http://www.w3.org/2000/svg" fill="none" viewBox="-2.5 -2.5 45 45" height="45" width="45"><g id="button-play--button-television-buttons-movies-play-tv-video-controls"><path id="Vector" stroke="#000000" stroke-linecap="round" stroke-linejoin="round" d="M4.1026 35.22828571428572c0.010257142857142857 0.5954285714285714 0.18348571428571428 1.1765714285714286 0.5008285714285714 1.6802857142857142 0.31734285714285715 0.5037142857142858 0.7666857142857144 0.9108571428571428 1.2991714285714286 1.1768571428571428 0.5317428571428572 0.3005714285714286 1.1321142857142856 0.4585714285714286 1.7428571428571429 0.4585714285714286s1.211142857142857 -0.158 1.7428571428571429 -0.4585714285714286l24.714257142857146 -15.2856c0.5377142857142857 -0.2590571428571429 0.9914285714285713 -0.6646285714285715 1.3091428571428572 -1.170057142857143 0.31742857142857145 -0.5054285714285714 0.48571428571428577 -1.0902 0.48571428571428577 -1.6870857142857143 0 -0.5968857142857144 -0.1682857142857143 -1.181657142857143 -0.48571428571428577 -1.6870857142857143 -0.3177142857142857 -0.5054285714285714 -0.7714285714285715 -0.911 -1.3091428571428572 -1.170057142857143L9.388314285714285 1.9141085714285715c-0.5317142857142857 -0.30044857142857145 -1.1321142857142856 -0.45833428571428575 -1.7428571428571429 -0.45833428571428575s-1.2111142857142858 0.15788571428571427 -1.7428571428571429 0.45833428571428575c-0.5324857142857143 0.2662542857142857 -0.9818285714285715 0.6733628571428572 -1.2991714285714286 1.1770914285714287 -0.31734285714285715 0.5037142857142858 -0.49057142857142855 1.0848 -0.5008285714285714 1.680057142857143V35.22828571428572Z" stroke-width="5"></path></g></svg>