<svg xmlns="http://www.w3.org/2000/svg" xmlns:xlink="http://www.w3.org/1999/xlink" width="918" zoomAndPan="magnify" viewBox="0 0 688.5 231" height="308" preserveAspectRatio="xMidYMid meet" version="1.0"><defs><g/><clipPath id="91cf329259"><path d="M 0.03125 0.113281 L 688 0.113281 L 688 230.914062 L 0.03125 230.914062 Z M 0.03125 0.113281 " clip-rule="nonzero"/></clipPath><clipPath id="25a87bd744"><path d="M 555.144531 0.113281 C 628.777344 0.113281 688.46875 51.8125 688.46875 115.582031 C 688.46875 179.355469 628.777344 231.054688 555.144531 231.054688 L 133.355469 231.054688 C 59.722656 231.054688 0.03125 179.355469 0.03125 115.582031 C 0.03125 51.8125 59.722656 0.113281 133.355469 0.113281 Z M 555.144531 0.113281 " clip-rule="nonzero"/></clipPath><linearGradient x1="0.00000000019175" gradientTransform="matrix(2.689205, 0, 0, 0.902106, 0.0317522, 0.114275)" y1="0" x2="255.826033" gradientUnits="userSpaceOnUse" y2="0" id="05febaeb96"><stop stop-opacity="1" stop-color="rgb(0%, 28.999329%, 67.799377%)" offset="0"/><stop stop-opacity="1" stop-color="rgb(0.309753%, 29.051208%, 67.886353%)" offset="0.00390625"/><stop stop-opacity="1" stop-color="rgb(0.621033%, 29.104614%, 67.974854%)" offset="0.0078125"/><stop stop-opacity="1" stop-color="rgb(0.930786%, 29.156494%, 68.061829%)" offset="0.0117188"/><stop stop-opacity="1" stop-color="rgb(1.242065%, 29.208374%, 68.148804%)" offset="0.015625"/><stop stop-opacity="1" stop-color="rgb(1.551819%, 29.260254%, 68.235779%)" offset="0.0195312"/><stop stop-opacity="1" stop-color="rgb(1.863098%, 29.31366%, 68.32428%)" offset="0.0234375"/><stop stop-opacity="1" stop-color="rgb(2.174377%, 29.36554%, 68.411255%)" offset="0.0273438"/><stop stop-opacity="1" stop-color="rgb(2.485657%, 29.417419%, 68.49823%)" offset="0.03125"/><stop stop-opacity="1" stop-color="rgb(2.79541%, 29.469299%, 68.585205%)" offset="0.0351562"/><stop stop-opacity="1" stop-color="rgb(3.106689%, 29.522705%, 68.673706%)" offset="0.0390625"/><stop stop-opacity="1" stop-color="rgb(3.416443%, 29.574585%, 68.760681%)" offset="0.0429688"/><stop stop-opacity="1" stop-color="rgb(3.727722%, 29.626465%, 68.849182%)" offset="0.046875"/><stop stop-opacity="1" stop-color="rgb(4.037476%, 29.678345%, 68.936157%)" offset="0.0507812"/><stop stop-opacity="1" stop-color="rgb(4.348755%, 29.73175%, 69.023132%)" offset="0.0546875"/><stop stop-opacity="1" stop-color="rgb(4.660034%, 29.78363%, 69.110107%)" offset="0.0585938"/><stop stop-opacity="1" stop-color="rgb(4.971313%, 29.83551%, 69.198608%)" offset="0.0625"/><stop stop-opacity="1" stop-color="rgb(5.281067%, 29.88739%, 69.285583%)" offset="0.0664062"/><stop stop-opacity="1" stop-color="rgb(5.592346%, 29.940796%, 69.372559%)" offset="0.0703125"/><stop stop-opacity="1" stop-color="rgb(5.9021%, 29.992676%, 69.459534%)" offset="0.0742188"/><stop stop-opacity="1" stop-color="rgb(6.213379%, 30.046082%, 69.548035%)" offset="0.078125"/><stop stop-opacity="1" stop-color="rgb(6.524658%, 30.097961%, 69.63501%)" offset="0.0820313"/><stop stop-opacity="1" stop-color="rgb(6.835938%, 30.149841%, 69.723511%)" offset="0.0859375"/><stop stop-opacity="1" stop-color="rgb(7.145691%, 30.201721%, 69.810486%)" offset="0.0898438"/><stop stop-opacity="1" stop-color="rgb(7.45697%, 30.255127%, 69.897461%)" offset="0.09375"/><stop stop-opacity="1" stop-color="rgb(7.766724%, 30.307007%, 69.984436%)" offset="0.0976563"/><stop stop-opacity="1" stop-color="rgb(8.078003%, 30.358887%, 70.072937%)" offset="0.101562"/><stop stop-opacity="1" stop-color="rgb(8.387756%, 30.410767%, 70.159912%)" offset="0.105469"/><stop stop-opacity="1" stop-color="rgb(8.699036%, 30.464172%, 70.246887%)" offset="0.109375"/><stop stop-opacity="1" stop-color="rgb(9.010315%, 30.516052%, 70.333862%)" offset="0.113281"/><stop stop-opacity="1" stop-color="rgb(9.321594%, 30.567932%, 70.422363%)" offset="0.117188"/><stop stop-opacity="1" stop-color="rgb(9.631348%, 30.619812%, 70.509338%)" offset="0.121094"/><stop stop-opacity="1" stop-color="rgb(9.942627%, 30.673218%, 70.597839%)" offset="0.125"/><stop stop-opacity="1" stop-color="rgb(10.25238%, 30.725098%, 70.684814%)" offset="0.128906"/><stop stop-opacity="1" stop-color="rgb(10.56366%, 30.776978%, 70.77179%)" offset="0.132812"/><stop stop-opacity="1" stop-color="rgb(10.873413%, 30.828857%, 70.858765%)" offset="0.136719"/><stop stop-opacity="1" stop-color="rgb(11.184692%, 30.882263%, 70.947266%)" offset="0.140625"/><stop stop-opacity="1" stop-color="rgb(11.495972%, 30.934143%, 71.034241%)" offset="0.144531"/><stop stop-opacity="1" stop-color="rgb(11.807251%, 30.987549%, 71.121216%)" offset="0.148438"/><stop stop-opacity="1" stop-color="rgb(12.117004%, 31.039429%, 71.208191%)" offset="0.152344"/><stop stop-opacity="1" stop-color="rgb(12.428284%, 31.091309%, 71.296692%)" offset="0.15625"/><stop stop-opacity="1" stop-color="rgb(12.738037%, 31.143188%, 71.383667%)" offset="0.160156"/><stop stop-opacity="1" stop-color="rgb(13.049316%, 31.196594%, 71.472168%)" offset="0.164063"/><stop stop-opacity="1" stop-color="rgb(13.360596%, 31.248474%, 71.559143%)" offset="0.167969"/><stop stop-opacity="1" stop-color="rgb(13.671875%, 31.300354%, 71.646118%)" offset="0.171875"/><stop stop-opacity="1" stop-color="rgb(13.981628%, 31.352234%, 71.733093%)" offset="0.175781"/><stop stop-opacity="1" stop-color="rgb(14.292908%, 31.40564%, 71.821594%)" offset="0.179688"/><stop stop-opacity="1" stop-color="rgb(14.602661%, 31.45752%, 71.908569%)" offset="0.183594"/><stop stop-opacity="1" stop-color="rgb(14.91394%, 31.509399%, 71.99707%)" offset="0.1875"/><stop stop-opacity="1" stop-color="rgb(15.223694%, 31.561279%, 72.084045%)" offset="0.191406"/><stop stop-opacity="1" stop-color="rgb(15.534973%, 31.614685%, 72.171021%)" offset="0.195313"/><stop stop-opacity="1" stop-color="rgb(15.846252%, 31.666565%, 72.257996%)" offset="0.199219"/><stop stop-opacity="1" stop-color="rgb(16.157532%, 31.719971%, 72.346497%)" offset="0.203125"/><stop stop-opacity="1" stop-color="rgb(16.467285%, 31.771851%, 72.433472%)" offset="0.207031"/><stop stop-opacity="1" stop-color="rgb(16.778564%, 31.82373%, 72.520447%)" offset="0.210938"/><stop stop-opacity="1" stop-color="rgb(17.088318%, 31.87561%, 72.607422%)" offset="0.214844"/><stop stop-opacity="1" stop-color="rgb(17.399597%, 31.929016%, 72.695923%)" offset="0.21875"/><stop stop-opacity="1" stop-color="rgb(17.709351%, 31.980896%, 72.782898%)" offset="0.222656"/><stop stop-opacity="1" stop-color="rgb(18.02063%, 32.032776%, 72.871399%)" offset="0.226563"/><stop stop-opacity="1" stop-color="rgb(18.331909%, 32.084656%, 72.958374%)" offset="0.230469"/><stop stop-opacity="1" stop-color="rgb(18.643188%, 32.138062%, 73.045349%)" offset="0.234375"/><stop stop-opacity="1" stop-color="rgb(18.952942%, 32.189941%, 73.132324%)" offset="0.238281"/><stop stop-opacity="1" stop-color="rgb(19.264221%, 32.241821%, 73.220825%)" offset="0.242188"/><stop stop-opacity="1" stop-color="rgb(19.573975%, 32.293701%, 73.3078%)" offset="0.246094"/><stop stop-opacity="1" stop-color="rgb(19.885254%, 32.347107%, 73.394775%)" offset="0.25"/><stop stop-opacity="1" stop-color="rgb(20.196533%, 32.398987%, 73.48175%)" offset="0.253906"/><stop stop-opacity="1" stop-color="rgb(20.507812%, 32.450867%, 73.570251%)" offset="0.257813"/><stop stop-opacity="1" stop-color="rgb(20.817566%, 32.502747%, 73.657227%)" offset="0.261719"/><stop stop-opacity="1" stop-color="rgb(21.128845%, 32.556152%, 73.745728%)" offset="0.265625"/><stop stop-opacity="1" stop-color="rgb(21.438599%, 32.608032%, 73.832703%)" offset="0.269531"/><stop stop-opacity="1" stop-color="rgb(21.749878%, 32.661438%, 73.919678%)" offset="0.273438"/><stop stop-opacity="1" stop-color="rgb(22.059631%, 32.713318%, 74.006653%)" offset="0.277344"/><stop stop-opacity="1" stop-color="rgb(22.370911%, 32.765198%, 74.095154%)" offset="0.28125"/><stop stop-opacity="1" stop-color="rgb(22.68219%, 32.817078%, 74.182129%)" offset="0.285156"/><stop stop-opacity="1" stop-color="rgb(22.993469%, 32.870483%, 74.269104%)" offset="0.289063"/><stop stop-opacity="1" stop-color="rgb(23.303223%, 32.922363%, 74.356079%)" offset="0.292969"/><stop stop-opacity="1" stop-color="rgb(23.614502%, 32.974243%, 74.44458%)" offset="0.296875"/><stop stop-opacity="1" stop-color="rgb(23.924255%, 33.026123%, 74.531555%)" offset="0.300781"/><stop stop-opacity="1" stop-color="rgb(24.235535%, 33.079529%, 74.620056%)" offset="0.304688"/><stop stop-opacity="1" stop-color="rgb(24.546814%, 33.131409%, 74.707031%)" offset="0.308594"/><stop stop-opacity="1" stop-color="rgb(24.858093%, 33.183289%, 74.794006%)" offset="0.3125"/><stop stop-opacity="1" stop-color="rgb(25.167847%, 33.235168%, 74.880981%)" offset="0.316406"/><stop stop-opacity="1" stop-color="rgb(25.479126%, 33.288574%, 74.969482%)" offset="0.320313"/><stop stop-opacity="1" stop-color="rgb(25.788879%, 33.340454%, 75.056458%)" offset="0.324219"/><stop stop-opacity="1" stop-color="rgb(26.100159%, 33.39386%, 75.144958%)" offset="0.328125"/><stop stop-opacity="1" stop-color="rgb(26.409912%, 33.44574%, 75.231934%)" offset="0.332031"/><stop stop-opacity="1" stop-color="rgb(26.721191%, 33.49762%, 75.318909%)" offset="0.335938"/><stop stop-opacity="1" stop-color="rgb(27.032471%, 33.5495%, 75.405884%)" offset="0.339844"/><stop stop-opacity="1" stop-color="rgb(27.34375%, 33.602905%, 75.494385%)" offset="0.34375"/><stop stop-opacity="1" stop-color="rgb(27.653503%, 33.654785%, 75.58136%)" offset="0.347656"/><stop stop-opacity="1" stop-color="rgb(27.964783%, 33.706665%, 75.668335%)" offset="0.351563"/><stop stop-opacity="1" stop-color="rgb(28.274536%, 33.758545%, 75.75531%)" offset="0.355469"/><stop stop-opacity="1" stop-color="rgb(28.585815%, 33.811951%, 75.843811%)" offset="0.359375"/><stop stop-opacity="1" stop-color="rgb(28.895569%, 33.863831%, 75.930786%)" offset="0.363281"/><stop stop-opacity="1" stop-color="rgb(29.206848%, 33.91571%, 76.019287%)" offset="0.367188"/><stop stop-opacity="1" stop-color="rgb(29.518127%, 33.96759%, 76.106262%)" offset="0.371094"/><stop stop-opacity="1" stop-color="rgb(29.829407%, 34.020996%, 76.193237%)" offset="0.375"/><stop stop-opacity="1" stop-color="rgb(30.13916%, 34.072876%, 76.280212%)" offset="0.378906"/><stop stop-opacity="1" stop-color="rgb(30.450439%, 34.124756%, 76.368713%)" offset="0.382812"/><stop stop-opacity="1" stop-color="rgb(30.760193%, 34.176636%, 76.455688%)" offset="0.386719"/><stop stop-opacity="1" stop-color="rgb(31.071472%, 34.230042%, 76.542664%)" offset="0.390625"/><stop stop-opacity="1" stop-color="rgb(31.382751%, 34.281921%, 76.629639%)" offset="0.394531"/><stop stop-opacity="1" stop-color="rgb(31.694031%, 34.335327%, 76.71814%)" offset="0.398438"/><stop stop-opacity="1" stop-color="rgb(32.003784%, 34.387207%, 76.805115%)" offset="0.402344"/><stop stop-opacity="1" stop-color="rgb(32.315063%, 34.439087%, 76.893616%)" offset="0.40625"/><stop stop-opacity="1" stop-color="rgb(32.624817%, 34.490967%, 76.980591%)" offset="0.410156"/><stop stop-opacity="1" stop-color="rgb(32.936096%, 34.544373%, 77.067566%)" offset="0.414062"/><stop stop-opacity="1" stop-color="rgb(33.24585%, 34.596252%, 77.154541%)" offset="0.417969"/><stop stop-opacity="1" stop-color="rgb(33.557129%, 34.648132%, 77.243042%)" offset="0.421875"/><stop stop-opacity="1" stop-color="rgb(33.868408%, 34.700012%, 77.330017%)" offset="0.425781"/><stop stop-opacity="1" stop-color="rgb(34.179688%, 34.753418%, 77.416992%)" offset="0.429688"/><stop stop-opacity="1" stop-color="rgb(34.489441%, 34.805298%, 77.503967%)" offset="0.433594"/><stop stop-opacity="1" stop-color="rgb(34.80072%, 34.857178%, 77.592468%)" offset="0.4375"/><stop stop-opacity="1" stop-color="rgb(35.110474%, 34.909058%, 77.679443%)" offset="0.441406"/><stop stop-opacity="1" stop-color="rgb(35.421753%, 34.962463%, 77.767944%)" offset="0.445312"/><stop stop-opacity="1" stop-color="rgb(35.731506%, 35.014343%, 77.854919%)" offset="0.449219"/><stop stop-opacity="1" stop-color="rgb(36.042786%, 35.066223%, 77.941895%)" offset="0.453125"/><stop stop-opacity="1" stop-color="rgb(36.354065%, 35.118103%, 78.02887%)" offset="0.457031"/><stop stop-opacity="1" stop-color="rgb(36.665344%, 35.171509%, 78.117371%)" offset="0.460938"/><stop stop-opacity="1" stop-color="rgb(36.975098%, 35.223389%, 78.204346%)" offset="0.464844"/><stop stop-opacity="1" stop-color="rgb(37.286377%, 35.276794%, 78.292847%)" offset="0.46875"/><stop stop-opacity="1" stop-color="rgb(37.59613%, 35.328674%, 78.379822%)" offset="0.472656"/><stop stop-opacity="1" stop-color="rgb(37.90741%, 35.380554%, 78.466797%)" offset="0.476563"/><stop stop-opacity="1" stop-color="rgb(38.218689%, 35.432434%, 78.553772%)" offset="0.480469"/><stop stop-opacity="1" stop-color="rgb(38.529968%, 35.48584%, 78.642273%)" offset="0.484375"/><stop stop-opacity="1" stop-color="rgb(38.839722%, 35.53772%, 78.729248%)" offset="0.488281"/><stop stop-opacity="1" stop-color="rgb(39.151001%, 35.5896%, 78.816223%)" offset="0.492188"/><stop stop-opacity="1" stop-color="rgb(39.460754%, 35.641479%, 78.903198%)" offset="0.496094"/><stop stop-opacity="1" stop-color="rgb(39.772034%, 35.694885%, 78.991699%)" offset="0.5"/><stop stop-opacity="1" stop-color="rgb(40.081787%, 35.746765%, 79.078674%)" offset="0.503906"/><stop stop-opacity="1" stop-color="rgb(40.393066%, 35.798645%, 79.167175%)" offset="0.507812"/><stop stop-opacity="1" stop-color="rgb(40.704346%, 35.850525%, 79.25415%)" offset="0.511719"/><stop stop-opacity="1" stop-color="rgb(41.015625%, 35.903931%, 79.341125%)" offset="0.515625"/><stop stop-opacity="1" stop-color="rgb(41.325378%, 35.955811%, 79.428101%)" offset="0.519531"/><stop stop-opacity="1" stop-color="rgb(41.636658%, 36.009216%, 79.516602%)" offset="0.523437"/><stop stop-opacity="1" stop-color="rgb(41.946411%, 36.061096%, 79.603577%)" offset="0.527344"/><stop stop-opacity="1" stop-color="rgb(42.25769%, 36.112976%, 79.690552%)" offset="0.53125"/><stop stop-opacity="1" stop-color="rgb(42.567444%, 36.164856%, 79.777527%)" offset="0.535156"/><stop stop-opacity="1" stop-color="rgb(42.878723%, 36.218262%, 79.866028%)" offset="0.539063"/><stop stop-opacity="1" stop-color="rgb(43.190002%, 36.270142%, 79.953003%)" offset="0.542969"/><stop stop-opacity="1" stop-color="rgb(43.501282%, 36.322021%, 80.041504%)" offset="0.546875"/><stop stop-opacity="1" stop-color="rgb(43.811035%, 36.373901%, 80.128479%)" offset="0.550781"/><stop stop-opacity="1" stop-color="rgb(44.122314%, 36.427307%, 80.215454%)" offset="0.554688"/><stop stop-opacity="1" stop-color="rgb(44.432068%, 36.479187%, 80.302429%)" offset="0.558594"/><stop stop-opacity="1" stop-color="rgb(44.743347%, 36.531067%, 80.39093%)" offset="0.5625"/><stop stop-opacity="1" stop-color="rgb(45.054626%, 36.582947%, 80.477905%)" offset="0.566406"/><stop stop-opacity="1" stop-color="rgb(45.365906%, 36.636353%, 80.56488%)" offset="0.570313"/><stop stop-opacity="1" stop-color="rgb(45.675659%, 36.688232%, 80.651855%)" offset="0.574219"/><stop stop-opacity="1" stop-color="rgb(45.986938%, 36.740112%, 80.740356%)" offset="0.578125"/><stop stop-opacity="1" stop-color="rgb(46.296692%, 36.791992%, 80.827332%)" offset="0.582031"/><stop stop-opacity="1" stop-color="rgb(46.607971%, 36.845398%, 80.915833%)" offset="0.585938"/><stop stop-opacity="1" stop-color="rgb(46.917725%, 36.897278%, 81.002808%)" offset="0.589844"/><stop stop-opacity="1" stop-color="rgb(47.229004%, 36.950684%, 81.089783%)" offset="0.59375"/><stop stop-opacity="1" stop-color="rgb(47.540283%, 37.002563%, 81.176758%)" offset="0.597656"/><stop stop-opacity="1" stop-color="rgb(47.851562%, 37.054443%, 81.265259%)" offset="0.601562"/><stop stop-opacity="1" stop-color="rgb(48.161316%, 37.106323%, 81.352234%)" offset="0.605469"/><stop stop-opacity="1" stop-color="rgb(48.472595%, 37.159729%, 81.439209%)" offset="0.609375"/><stop stop-opacity="1" stop-color="rgb(48.782349%, 37.211609%, 81.526184%)" offset="0.613281"/><stop stop-opacity="1" stop-color="rgb(49.093628%, 37.263489%, 81.614685%)" offset="0.617188"/><stop stop-opacity="1" stop-color="rgb(49.404907%, 37.315369%, 81.70166%)" offset="0.621094"/><stop stop-opacity="1" stop-color="rgb(49.716187%, 37.368774%, 81.790161%)" offset="0.625"/><stop stop-opacity="1" stop-color="rgb(50.02594%, 37.420654%, 81.877136%)" offset="0.628906"/><stop stop-opacity="1" stop-color="rgb(50.337219%, 37.472534%, 81.964111%)" offset="0.632812"/><stop stop-opacity="1" stop-color="rgb(50.646973%, 37.524414%, 82.051086%)" offset="0.636719"/><stop stop-opacity="1" stop-color="rgb(50.958252%, 37.57782%, 82.139587%)" offset="0.640625"/><stop stop-opacity="1" stop-color="rgb(51.268005%, 37.6297%, 82.226562%)" offset="0.644531"/><stop stop-opacity="1" stop-color="rgb(51.579285%, 37.683105%, 82.315063%)" offset="0.648438"/><stop stop-opacity="1" stop-color="rgb(51.890564%, 37.734985%, 82.402039%)" offset="0.652344"/><stop stop-opacity="1" stop-color="rgb(52.201843%, 37.786865%, 82.489014%)" offset="0.65625"/><stop stop-opacity="1" stop-color="rgb(52.511597%, 37.838745%, 82.575989%)" offset="0.660156"/><stop stop-opacity="1" stop-color="rgb(52.822876%, 37.892151%, 82.66449%)" offset="0.664062"/><stop stop-opacity="1" stop-color="rgb(53.132629%, 37.944031%, 82.751465%)" offset="0.667969"/><stop stop-opacity="1" stop-color="rgb(53.443909%, 37.995911%, 82.83844%)" offset="0.671875"/><stop stop-opacity="1" stop-color="rgb(53.753662%, 38.047791%, 82.925415%)" offset="0.675781"/><stop stop-opacity="1" stop-color="rgb(54.064941%, 38.101196%, 83.013916%)" offset="0.679688"/><stop stop-opacity="1" stop-color="rgb(54.376221%, 38.153076%, 83.100891%)" offset="0.683594"/><stop stop-opacity="1" stop-color="rgb(54.6875%, 38.204956%, 83.189392%)" offset="0.6875"/><stop stop-opacity="1" stop-color="rgb(54.997253%, 38.256836%, 83.276367%)" offset="0.691406"/><stop stop-opacity="1" stop-color="rgb(55.308533%, 38.310242%, 83.363342%)" offset="0.695313"/><stop stop-opacity="1" stop-color="rgb(55.618286%, 38.362122%, 83.450317%)" offset="0.699219"/><stop stop-opacity="1" stop-color="rgb(55.929565%, 38.414001%, 83.538818%)" offset="0.703125"/><stop stop-opacity="1" stop-color="rgb(56.240845%, 38.465881%, 83.625793%)" offset="0.707031"/><stop stop-opacity="1" stop-color="rgb(56.552124%, 38.519287%, 83.712769%)" offset="0.710938"/><stop stop-opacity="1" stop-color="rgb(56.861877%, 38.571167%, 83.799744%)" offset="0.714844"/><stop stop-opacity="1" stop-color="rgb(57.173157%, 38.624573%, 83.888245%)" offset="0.71875"/><stop stop-opacity="1" stop-color="rgb(57.48291%, 38.676453%, 83.97522%)" offset="0.722656"/><stop stop-opacity="1" stop-color="rgb(57.794189%, 38.728333%, 84.063721%)" offset="0.726562"/><stop stop-opacity="1" stop-color="rgb(58.103943%, 38.780212%, 84.150696%)" offset="0.730469"/><stop stop-opacity="1" stop-color="rgb(58.415222%, 38.833618%, 84.237671%)" offset="0.734375"/><stop stop-opacity="1" stop-color="rgb(58.726501%, 38.885498%, 84.324646%)" offset="0.738281"/><stop stop-opacity="1" stop-color="rgb(59.037781%, 38.937378%, 84.413147%)" offset="0.742188"/><stop stop-opacity="1" stop-color="rgb(59.347534%, 38.989258%, 84.500122%)" offset="0.746094"/><stop stop-opacity="1" stop-color="rgb(59.658813%, 39.042664%, 84.587097%)" offset="0.75"/><stop stop-opacity="1" stop-color="rgb(59.968567%, 39.094543%, 84.674072%)" offset="0.753906"/><stop stop-opacity="1" stop-color="rgb(60.279846%, 39.146423%, 84.762573%)" offset="0.757812"/><stop stop-opacity="1" stop-color="rgb(60.5896%, 39.198303%, 84.849548%)" offset="0.761719"/><stop stop-opacity="1" stop-color="rgb(60.900879%, 39.251709%, 84.938049%)" offset="0.765625"/><stop stop-opacity="1" stop-color="rgb(61.212158%, 39.303589%, 85.025024%)" offset="0.769531"/><stop stop-opacity="1" stop-color="rgb(61.523438%, 39.356995%, 85.112%)" offset="0.773438"/><stop stop-opacity="1" stop-color="rgb(61.833191%, 39.408875%, 85.198975%)" offset="0.777344"/><stop stop-opacity="1" stop-color="rgb(62.14447%, 39.460754%, 85.287476%)" offset="0.78125"/><stop stop-opacity="1" stop-color="rgb(62.454224%, 39.512634%, 85.374451%)" offset="0.785156"/><stop stop-opacity="1" stop-color="rgb(62.765503%, 39.56604%, 85.462952%)" offset="0.789062"/><stop stop-opacity="1" stop-color="rgb(63.076782%, 39.61792%, 85.549927%)" offset="0.792969"/><stop stop-opacity="1" stop-color="rgb(63.388062%, 39.6698%, 85.636902%)" offset="0.796875"/><stop stop-opacity="1" stop-color="rgb(63.697815%, 39.72168%, 85.723877%)" offset="0.800781"/><stop stop-opacity="1" stop-color="rgb(64.009094%, 39.775085%, 85.812378%)" offset="0.804688"/><stop stop-opacity="1" stop-color="rgb(64.318848%, 39.826965%, 85.899353%)" offset="0.808594"/><stop stop-opacity="1" stop-color="rgb(64.630127%, 39.878845%, 85.986328%)" offset="0.8125"/><stop stop-opacity="1" stop-color="rgb(64.93988%, 39.930725%, 86.073303%)" offset="0.816406"/><stop stop-opacity="1" stop-color="rgb(65.25116%, 39.984131%, 86.161804%)" offset="0.820313"/><stop stop-opacity="1" stop-color="rgb(65.562439%, 40.036011%, 86.248779%)" offset="0.824219"/><stop stop-opacity="1" stop-color="rgb(65.873718%, 40.087891%, 86.33728%)" offset="0.828125"/><stop stop-opacity="1" stop-color="rgb(66.183472%, 40.139771%, 86.424255%)" offset="0.832031"/><stop stop-opacity="1" stop-color="rgb(66.494751%, 40.193176%, 86.51123%)" offset="0.835938"/><stop stop-opacity="1" stop-color="rgb(66.804504%, 40.245056%, 86.598206%)" offset="0.839844"/><stop stop-opacity="1" stop-color="rgb(67.115784%, 40.298462%, 86.686707%)" offset="0.84375"/><stop stop-opacity="1" stop-color="rgb(67.425537%, 40.350342%, 86.773682%)" offset="0.847656"/><stop stop-opacity="1" stop-color="rgb(67.736816%, 40.402222%, 86.860657%)" offset="0.851562"/><stop stop-opacity="1" stop-color="rgb(68.048096%, 40.454102%, 86.947632%)" offset="0.855469"/><stop stop-opacity="1" stop-color="rgb(68.359375%, 40.507507%, 87.036133%)" offset="0.859375"/><stop stop-opacity="1" stop-color="rgb(68.669128%, 40.559387%, 87.123108%)" offset="0.863281"/><stop stop-opacity="1" stop-color="rgb(68.980408%, 40.611267%, 87.211609%)" offset="0.867188"/><stop stop-opacity="1" stop-color="rgb(69.290161%, 40.663147%, 87.298584%)" offset="0.871094"/><stop stop-opacity="1" stop-color="rgb(69.60144%, 40.716553%, 87.385559%)" offset="0.875"/><stop stop-opacity="1" stop-color="rgb(69.91272%, 40.768433%, 87.472534%)" offset="0.878906"/><stop stop-opacity="1" stop-color="rgb(70.223999%, 40.820312%, 87.561035%)" offset="0.882812"/><stop stop-opacity="1" stop-color="rgb(70.533752%, 40.872192%, 87.64801%)" offset="0.886719"/><stop stop-opacity="1" stop-color="rgb(70.845032%, 40.925598%, 87.734985%)" offset="0.890625"/><stop stop-opacity="1" stop-color="rgb(71.154785%, 40.977478%, 87.82196%)" offset="0.894531"/><stop stop-opacity="1" stop-color="rgb(71.466064%, 41.029358%, 87.910461%)" offset="0.898438"/><stop stop-opacity="1" stop-color="rgb(71.775818%, 41.081238%, 87.997437%)" offset="0.902344"/><stop stop-opacity="1" stop-color="rgb(72.087097%, 41.134644%, 88.085938%)" offset="0.90625"/><stop stop-opacity="1" stop-color="rgb(72.398376%, 41.186523%, 88.172913%)" offset="0.910156"/><stop stop-opacity="1" stop-color="rgb(72.709656%, 41.239929%, 88.259888%)" offset="0.914062"/><stop stop-opacity="1" stop-color="rgb(73.019409%, 41.291809%, 88.346863%)" offset="0.917969"/><stop stop-opacity="1" stop-color="rgb(73.330688%, 41.343689%, 88.435364%)" offset="0.921875"/><stop stop-opacity="1" stop-color="rgb(73.640442%, 41.395569%, 88.522339%)" offset="0.925781"/><stop stop-opacity="1" stop-color="rgb(73.951721%, 41.448975%, 88.61084%)" offset="0.929687"/><stop stop-opacity="1" stop-color="rgb(74.263%, 41.500854%, 88.697815%)" offset="0.933594"/><stop stop-opacity="1" stop-color="rgb(74.57428%, 41.552734%, 88.78479%)" offset="0.9375"/><stop stop-opacity="1" stop-color="rgb(74.884033%, 41.604614%, 88.871765%)" offset="0.941406"/><stop stop-opacity="1" stop-color="rgb(75.195312%, 41.65802%, 88.960266%)" offset="0.945313"/><stop stop-opacity="1" stop-color="rgb(75.505066%, 41.7099%, 89.047241%)" offset="0.949219"/><stop stop-opacity="1" stop-color="rgb(75.816345%, 41.76178%, 89.134216%)" offset="0.953125"/><stop stop-opacity="1" stop-color="rgb(76.126099%, 41.81366%, 89.221191%)" offset="0.957031"/><stop stop-opacity="1" stop-color="rgb(76.437378%, 41.867065%, 89.309692%)" offset="0.960938"/><stop stop-opacity="1" stop-color="rgb(76.748657%, 41.918945%, 89.396667%)" offset="0.964844"/><stop stop-opacity="1" stop-color="rgb(77.059937%, 41.972351%, 89.485168%)" offset="0.96875"/><stop stop-opacity="1" stop-color="rgb(77.36969%, 42.024231%, 89.572144%)" offset="0.972656"/><stop stop-opacity="1" stop-color="rgb(77.680969%, 42.076111%, 89.659119%)" offset="0.976562"/><stop stop-opacity="1" stop-color="rgb(77.990723%, 42.127991%, 89.746094%)" offset="0.980469"/><stop stop-opacity="1" stop-color="rgb(78.302002%, 42.181396%, 89.834595%)" offset="0.984375"/><stop stop-opacity="1" stop-color="rgb(78.611755%, 42.233276%, 89.92157%)" offset="0.988281"/><stop stop-opacity="1" stop-color="rgb(78.923035%, 42.285156%, 90.008545%)" offset="0.992188"/><stop stop-opacity="1" stop-color="rgb(79.234314%, 42.337036%, 90.09552%)" offset="0.996094"/><stop stop-opacity="1" stop-color="rgb(79.545593%, 42.390442%, 90.184021%)" offset="1"/></linearGradient><clipPath id="6137bc30c9"><path d="M 0.0429688 0.113281 L 688 0.113281 L 688 230.914062 L 0.0429688 230.914062 Z M 0.0429688 0.113281 " clip-rule="nonzero"/></clipPath><clipPath id="436d485810"><path d="M 555.1875 0.113281 C 628.824219 0.113281 688.519531 51.824219 688.519531 115.613281 C 688.519531 179.402344 628.824219 231.113281 555.1875 231.113281 L 133.375 231.113281 C 59.738281 231.113281 0.0429688 179.402344 0.0429688 115.613281 C 0.0429688 51.824219 59.738281 0.113281 133.375 0.113281 Z M 555.1875 0.113281 " clip-rule="nonzero"/></clipPath><clipPath id="0e0d5ad385"><path d="M 0 0.0820312 L 688 0.0820312 L 688 230.914062 L 0 230.914062 Z M 0 0.0820312 " clip-rule="nonzero"/></clipPath></defs><g clip-path="url(#91cf329259)"><g clip-path="url(#25a87bd744)"><path fill="url(#05febaeb96)" d="M 0.03125 0.113281 L 0.03125 230.917969 L 688 230.917969 L 688 0.113281 Z M 0.03125 0.113281 " fill-rule="nonzero"/></g></g><g clip-path="url(#6137bc30c9)"><g clip-path="url(#436d485810)"><path stroke-linecap="butt" transform="matrix(0.750077, 0, 0, 0.750228, 0.0424028, 0.114273)" fill="none" stroke-linejoin="miter" d="M 740.117933 -0.00132203 C 838.290206 -0.00132203 917.875834 68.925618 917.875834 153.951824 C 917.875834 238.978031 838.290206 307.904971 740.117933 307.904971 L 177.758656 307.904971 C 79.586383 307.904971 0.000754481 238.978031 0.000754481 153.951824 C 0.000754481 68.925618 79.586383 -0.00132203 177.758656 -0.00132203 Z M 740.117933 -0.00132203 " stroke="#000000" stroke-width="62" stroke-opacity="1" stroke-miterlimit="4"/></g></g><g clip-path="url(#0e0d5ad385)"><path stroke-linecap="butt" transform="matrix(0.75, 0, 0, 0.75, 36.35248, 22.958827)" fill="none" stroke-linejoin="miter" d="M 75.259199 153.299702 C 62.977948 153.299702 53.441489 150.034076 46.644613 143.502826 C 39.852946 136.971575 36.457112 127.674699 36.457112 115.60699 C 36.457112 103.153864 39.602946 93.591363 45.899821 86.929904 C 52.191489 80.268446 61.175864 76.935112 72.852949 76.935112 C 83.962325 76.935112 92.545659 79.836154 98.597742 85.627821 C 104.655035 91.419488 107.681077 99.768447 107.681077 110.659073 L 107.681077 121.987199 L 62.175864 121.987199 C 62.347739 126.112199 63.852948 129.346575 66.696698 131.690325 C 69.540448 134.034075 73.415449 135.20595 78.321699 135.20595 C 82.790449 135.20595 86.899825 134.778867 90.655033 133.935117 C 94.410242 133.086158 98.477951 131.64345 102.863368 129.606991 L 102.863368 147.898659 C 98.868576 149.940326 94.748784 151.346576 90.493575 152.127826 C 86.238366 152.909077 81.160241 153.299702 75.259199 153.299702 Z M 73.764407 94.252822 C 70.769615 94.252822 68.259198 95.19553 66.243573 97.086155 C 64.22274 98.971572 63.040448 101.935114 62.696698 105.971573 L 84.566491 105.971573 C 84.483158 102.414281 83.472741 99.57053 81.540449 97.44553 C 79.608158 95.315322 77.019616 94.252822 73.764407 94.252822 Z M 210.358168 151.997618 L 210.358168 111.898657 C 210.358168 106.903864 209.675877 103.164281 208.306085 100.664281 C 206.941501 98.169489 204.780043 96.924697 201.826918 96.924697 C 197.920667 96.924697 195.061292 98.596572 193.238375 101.935114 C 191.415458 105.278864 190.504 110.508031 190.504 117.627824 L 190.504 151.997618 L 164.983165 151.997618 L 164.983165 111.898657 C 164.983165 106.903864 164.332123 103.164281 163.030039 100.664281 C 161.727956 98.169489 159.623789 96.924697 156.712331 96.924697 C 152.722747 96.924697 149.811288 98.700739 147.988372 102.263239 C 146.165455 105.820531 145.253996 111.63824 145.253996 119.711157 L 145.253996 151.997618 L 119.800869 151.997618 L 119.800869 78.237195 L 139.003996 78.237195 L 142.196704 87.351779 L 143.691496 87.351779 C 145.644621 83.966363 148.477955 81.383029 152.186289 79.606987 C 155.89983 77.825737 160.118581 76.935112 164.852956 76.935112 C 175.483165 76.935112 182.951916 80.169487 187.248791 86.638238 L 189.264417 86.638238 C 191.34775 83.596571 194.243584 81.221571 197.957126 79.508029 C 201.665459 77.794487 205.75921 76.935112 210.22796 76.935112 C 218.951919 76.935112 225.394628 79.169487 229.561295 83.643446 C 233.727962 88.112196 235.811295 94.903863 235.811295 104.018448 L 235.811295 151.997618 Z M 295.129009 153.299702 C 291.399842 153.299702 288.056091 152.685118 285.108174 151.445535 C 282.155049 150.21116 279.222757 147.987201 276.316507 144.773659 L 275.144632 144.773659 C 275.925882 149.940326 276.316507 153.14866 276.316507 154.409077 L 276.316507 184.028871 L 250.86338 184.028871 L 250.86338 78.237195 L 271.566507 78.237195 L 275.144632 87.612196 L 276.316507 87.612196 C 281.045674 80.497612 287.576925 76.935112 295.910259 76.935112 C 304.071718 76.935112 310.47276 80.320529 315.118594 87.091363 C 319.764427 93.862197 322.082136 103.153864 322.082136 114.955948 C 322.082136 126.846574 319.665469 136.211159 314.826927 143.049701 C 309.983176 149.883035 303.420676 153.299702 295.129009 153.299702 Z M 286.602966 96.924697 C 282.868591 96.924697 280.254007 98.25803 278.759216 100.924697 C 277.259215 103.596572 276.446715 107.554906 276.316507 112.810115 L 276.316507 114.82574 C 276.316507 121.164282 277.165465 125.742408 278.858174 128.565325 C 280.550882 131.383033 283.217549 132.794492 286.863383 132.794492 C 290.118592 132.794492 292.483175 131.39345 293.957133 128.596575 C 295.4363 125.794491 296.170675 121.164282 296.170675 114.695532 C 296.170675 108.362198 295.4363 103.815323 293.957133 101.054906 C 292.483175 98.299697 290.03005 96.924697 286.602966 96.924697 Z M 378.86339 76.935112 C 381.076932 76.935112 383.181099 77.112195 385.181099 77.455945 L 386.613391 77.716362 L 384.332141 101.742406 C 382.248807 101.221572 379.36339 100.961156 375.67589 100.961156 C 370.118598 100.961156 366.082139 102.226781 363.566514 104.768448 C 361.045681 107.304906 359.790472 110.961156 359.790472 115.737198 L 359.790472 151.997618 L 334.332137 151.997618 L 334.332137 78.237195 L 353.280055 78.237195 L 357.248805 90.023655 L 358.488389 90.023655 C 360.613389 86.117404 363.576931 82.961154 367.373806 80.549696 C 371.170681 78.143445 374.998807 76.935112 378.86339 76.935112 Z M 430.238395 153.299702 C 417.957144 153.299702 408.420685 150.034076 401.629017 143.502826 C 394.83735 136.971575 391.441516 127.674699 391.441516 115.60699 C 391.441516 103.153864 394.58735 93.591363 400.879017 86.929904 C 407.170684 80.268446 416.15506 76.935112 427.832144 76.935112 C 438.94152 76.935112 447.524854 79.836154 453.582147 85.627821 C 459.63423 91.419488 462.660272 99.768447 462.660272 110.659073 L 462.660272 121.987199 L 417.15506 121.987199 C 417.326935 126.112199 418.837352 129.346575 421.681102 131.690325 C 424.524853 134.034075 428.394645 135.20595 433.300895 135.20595 C 437.769645 135.20595 441.884229 134.778867 445.639438 133.935117 C 449.389438 133.086158 453.462355 131.64345 457.842564 129.606991 L 457.842564 147.898659 C 453.85298 149.940326 449.72798 151.346576 445.472771 152.127826 C 441.222771 152.909077 436.144645 153.299702 430.238395 153.299702 Z M 428.743603 94.252822 C 425.748811 94.252822 423.243602 95.19553 421.222769 97.086155 C 419.207144 98.971572 418.024852 101.935114 417.675894 105.971573 L 439.550895 105.971573 C 439.462354 102.414281 438.457145 99.57053 436.524854 97.44553 C 434.592562 95.315322 431.998811 94.252822 428.743603 94.252822 Z M 544.379029 78.237195 L 544.379029 90.544488 L 534.285278 94.252822 C 535.675903 96.773655 536.368612 99.700739 536.368612 103.044489 C 536.368612 110.987198 533.582153 117.148657 528.004028 121.534074 C 522.425902 125.914283 514.102985 128.106991 503.035276 128.106991 C 500.3009 128.106991 498.134234 127.935116 496.524858 127.586158 C 495.920692 128.716366 495.6134 129.778866 495.6134 130.778866 C 495.6134 132.034075 496.634233 133.002825 498.6759 133.6747 C 500.712359 134.346575 503.384234 134.685117 506.681109 134.685117 L 518.920694 134.685117 C 535.457153 134.685117 543.727987 141.648659 543.727987 155.580952 C 543.727987 164.565327 539.894654 171.554911 532.233195 176.544495 C 524.576944 181.534079 513.821735 184.028871 499.977984 184.028871 C 489.514441 184.028871 481.457149 182.284079 475.790482 178.789287 C 470.129023 175.294495 467.295689 170.273661 467.295689 163.716369 C 467.295689 154.909077 472.76444 149.221576 483.701941 146.659076 C 481.441524 145.705951 479.477982 144.164284 477.811315 142.039284 C 476.13944 139.914284 475.300898 137.810117 475.300898 135.726783 C 475.300898 133.4247 475.931107 131.39345 477.191524 129.638241 C 478.446732 127.877824 481.076941 125.784074 485.066524 123.356991 C 481.248816 121.664282 478.243607 119.01324 476.050898 115.414282 C 473.85819 111.810115 472.76444 107.424698 472.76444 102.263239 C 472.76444 94.231988 475.498815 88.002821 480.967565 83.575738 C 486.436316 79.148654 494.248817 76.935112 504.405067 76.935112 C 505.748818 76.935112 508.071734 77.086154 511.36861 77.393445 C 514.665485 77.695529 517.097777 77.976779 518.660277 78.237195 Z M 488.780066 161.179911 C 488.780066 163.263244 489.905066 164.945536 492.165483 166.226786 C 494.420692 167.502828 497.436317 168.143453 501.212359 168.143453 C 507.379026 168.143453 512.311318 167.372619 516.02486 165.836161 C 519.733194 164.294494 521.592569 162.310119 521.592569 159.877827 C 521.592569 157.924702 520.46236 156.544494 518.207152 155.74241 C 515.946735 154.940327 512.71236 154.539285 508.504026 154.539285 L 498.545692 154.539285 C 495.811317 154.539285 493.498817 155.17991 491.6134 156.46116 C 489.722775 157.74241 488.780066 159.315327 488.780066 161.179911 Z M 496.785275 102.393447 C 496.785275 109.945531 499.410275 113.721573 504.665484 113.721573 C 507.092568 113.721573 508.972776 112.784073 510.295693 110.91949 C 511.61861 109.054906 512.280068 106.252823 512.280068 102.523656 C 512.280068 94.88303 509.74361 91.065321 504.665484 91.065321 C 499.410275 91.065321 496.785275 94.841363 496.785275 102.393447 Z M 623.748827 114.955948 C 623.748827 127.023658 620.504035 136.429909 614.014451 143.179909 C 607.524868 149.92991 598.441533 153.299702 586.769658 153.299702 C 575.57174 153.299702 566.665489 149.851785 560.045697 142.950742 C 553.425905 136.0497 550.118613 126.716366 550.118613 114.955948 C 550.118613 102.935114 553.358196 93.591363 559.84778 86.929904 C 566.337364 80.268446 575.441532 76.935112 587.160283 76.935112 C 594.410283 76.935112 600.811325 78.476779 606.363409 81.560112 C 611.920701 84.638238 616.20716 89.054905 619.222785 94.804905 C 622.23841 100.560114 623.748827 107.273656 623.748827 114.955948 Z M 575.962365 114.955948 C 575.962365 121.294491 576.806115 126.122616 578.498823 129.440325 C 580.191532 132.763242 583.035282 134.4247 587.030074 134.4247 C 590.977991 134.4247 593.769658 132.763242 595.394658 129.440325 C 597.024867 126.122616 597.837367 121.294491 597.837367 114.955948 C 597.837367 108.664281 597.009242 103.909073 595.363408 100.700739 C 593.712366 97.487197 590.894658 95.88303 586.899866 95.88303 C 582.993616 95.88303 580.191532 97.47678 578.498823 100.664281 C 576.806115 103.856989 575.962365 108.617406 575.962365 114.955948 Z M 632.80612 141.195534 C 632.80612 137.200742 633.988411 134.117408 636.352995 131.950741 C 638.722787 129.778866 642.160287 128.695533 646.675912 128.695533 C 650.972788 128.695533 654.269663 129.778866 656.571747 131.950741 C 658.868622 134.117408 660.019664 137.200742 660.019664 141.195534 C 660.019664 145.096576 658.837372 148.148659 656.472788 150.341368 C 654.108205 152.534077 650.842579 153.627827 646.675912 153.627827 C 642.379037 153.627827 638.99362 152.544493 636.519662 150.372618 C 634.045703 148.200743 632.80612 145.143451 632.80612 141.195534 Z M 670.384248 184.028871 C 668.300914 184.028871 665.899872 183.867412 663.191539 183.544496 C 660.477997 183.216371 658.316538 182.836162 656.712372 182.403871 L 656.712372 162.544494 C 659.488413 163.325744 662.09258 163.716369 664.524872 163.716369 C 669.686331 163.716369 672.269665 160.028869 672.269665 152.64866 L 672.269665 78.237195 L 697.728 78.237195 L 697.728 157.987202 C 697.728 166.106994 695.347791 172.476786 690.597791 177.096579 C 685.842582 181.721579 679.108207 184.028871 670.384248 184.028871 Z M 671.618623 59.877819 C 671.618623 56.06011 672.681123 53.21636 674.811331 51.351777 C 676.936332 49.487193 680.363415 48.549693 685.097791 48.549693 C 689.826958 48.549693 693.274875 49.508026 695.44675 51.414277 C 697.618625 53.325735 698.701958 56.148652 698.701958 59.877819 C 698.701958 67.34657 694.1655 71.075736 685.097791 71.075736 C 676.113415 71.075736 671.618623 67.34657 671.618623 59.877819 Z M 757.498838 153.299702 C 753.769671 153.299702 750.425921 152.685118 747.478004 151.445535 C 744.524879 150.21116 741.592587 147.987201 738.686337 144.773659 L 737.514462 144.773659 C 738.295712 149.940326 738.686337 153.14866 738.686337 154.409077 L 738.686337 184.028871 L 713.23321 184.028871 L 713.23321 78.237195 L 733.936336 78.237195 L 737.514462 87.612196 L 738.686337 87.612196 C 743.415504 80.497612 749.951963 76.935112 758.280088 76.935112 C 766.441547 76.935112 772.842589 80.320529 777.488423 87.091363 C 782.134257 93.862197 784.451965 103.153864 784.451965 114.955948 C 784.451965 126.846574 782.035299 136.211159 777.196756 143.049701 C 772.353006 149.883035 765.790506 153.299702 757.498838 153.299702 Z M 748.972796 96.924697 C 745.238421 96.924697 742.623837 98.25803 741.129045 100.924697 C 739.629045 103.596572 738.816545 107.554906 738.686337 112.810115 L 738.686337 114.82574 C 738.686337 121.164282 739.535295 125.742408 741.228004 128.565325 C 742.920712 131.383033 745.587379 132.794492 749.233213 132.794492 C 752.488421 132.794492 754.853005 131.39345 756.326963 128.596575 C 757.80613 125.794491 758.540505 121.164282 758.540505 114.695532 C 758.540505 108.362198 757.80613 103.815323 756.326963 101.054906 C 754.853005 98.299697 752.399879 96.924697 748.972796 96.924697 Z M 748.972796 96.924697 " stroke="#000000" stroke-width="34.999912" stroke-opacity="1" stroke-miterlimit="4"/></g><g fill="#ffffff" fill-opacity="1"><g transform="translate(59.49701, 136.958818)"><g><path d="M 33.296875 0.984375 C 24.085938 0.984375 16.9375 -1.460938 11.84375 -6.359375 C 6.75 -11.265625 4.203125 -18.242188 4.203125 -27.296875 C 4.203125 -36.640625 6.5625 -43.804688 11.28125 -48.796875 C 16 -53.796875 22.738281 -56.296875 31.5 -56.296875 C 39.832031 -56.296875 46.269531 -54.125 50.8125 -49.78125 C 55.351562 -45.4375 57.625 -39.175781 57.625 -31 L 57.625 -22.515625 L 23.484375 -22.515625 C 23.617188 -19.421875 24.75 -16.992188 26.875 -15.234375 C 29.007812 -13.472656 31.914062 -12.59375 35.59375 -12.59375 C 38.945312 -12.59375 42.03125 -12.910156 44.84375 -13.546875 C 47.664062 -14.179688 50.71875 -15.265625 54 -16.796875 L 54 -3.078125 C 51.007812 -1.546875 47.914062 -0.488281 44.71875 0.09375 C 41.53125 0.6875 37.722656 0.984375 33.296875 0.984375 Z M 32.171875 -43.3125 C 29.929688 -43.3125 28.050781 -42.601562 26.53125 -41.1875 C 25.019531 -39.769531 24.132812 -37.546875 23.875 -34.515625 L 40.28125 -34.515625 C 40.21875 -37.191406 39.460938 -39.328125 38.015625 -40.921875 C 36.566406 -42.515625 34.617188 -43.3125 32.171875 -43.3125 Z M 32.171875 -43.3125 "/></g></g></g><g fill="#ffffff" fill-opacity="1"><g transform="translate(119.611, 136.958818)"><g><path d="M 74.515625 0 L 74.515625 -30.078125 C 74.515625 -33.816406 74 -36.625 72.96875 -38.5 C 71.945312 -40.375 70.328125 -41.3125 68.109375 -41.3125 C 65.179688 -41.3125 63.035156 -40.054688 61.671875 -37.546875 C 60.304688 -35.046875 59.625 -31.125 59.625 -25.78125 L 59.625 0 L 40.484375 0 L 40.484375 -30.078125 C 40.484375 -33.816406 39.992188 -36.625 39.015625 -38.5 C 38.035156 -40.375 36.457031 -41.3125 34.28125 -41.3125 C 31.28125 -41.3125 29.097656 -39.972656 27.734375 -37.296875 C 26.367188 -34.628906 25.6875 -30.269531 25.6875 -24.21875 L 25.6875 0 L 6.59375 0 L 6.59375 -55.328125 L 21 -55.328125 L 23.390625 -48.484375 L 24.515625 -48.484375 C 25.972656 -51.023438 28.09375 -52.960938 30.875 -54.296875 C 33.664062 -55.628906 36.832031 -56.296875 40.375 -56.296875 C 48.351562 -56.296875 53.953125 -53.875 57.171875 -49.03125 L 58.6875 -49.03125 C 60.25 -51.300781 62.421875 -53.078125 65.203125 -54.359375 C 67.992188 -55.648438 71.066406 -56.296875 74.421875 -56.296875 C 80.960938 -56.296875 85.796875 -54.617188 88.921875 -51.265625 C 92.046875 -47.910156 93.609375 -42.816406 93.609375 -35.984375 L 93.609375 0 Z M 74.515625 0 "/></g></g></g><g fill="#ffffff" fill-opacity="1"><g transform="translate(217.907088, 136.958818)"><g><path d="M 39.796875 0.984375 C 36.992188 0.984375 34.484375 0.519531 32.265625 -0.40625 C 30.054688 -1.34375 27.863281 -3.015625 25.6875 -5.421875 L 24.8125 -5.421875 C 25.394531 -1.546875 25.6875 0.863281 25.6875 1.8125 L 25.6875 24.03125 L 6.59375 24.03125 L 6.59375 -55.328125 L 22.125 -55.328125 L 24.8125 -48.296875 L 25.6875 -48.296875 C 29.226562 -53.628906 34.125 -56.296875 40.375 -56.296875 C 46.5 -56.296875 51.300781 -53.753906 54.78125 -48.671875 C 58.269531 -43.597656 60.015625 -36.632812 60.015625 -27.78125 C 60.015625 -18.863281 58.195312 -11.835938 54.5625 -6.703125 C 50.9375 -1.578125 46.015625 0.984375 39.796875 0.984375 Z M 33.40625 -41.3125 C 30.601562 -41.3125 28.640625 -40.304688 27.515625 -38.296875 C 26.390625 -36.296875 25.78125 -33.328125 25.6875 -29.390625 L 25.6875 -27.875 C 25.6875 -23.125 26.320312 -19.691406 27.59375 -17.578125 C 28.863281 -15.460938 30.863281 -14.40625 33.59375 -14.40625 C 36.03125 -14.40625 37.800781 -15.453125 38.90625 -17.546875 C 40.019531 -19.648438 40.578125 -23.128906 40.578125 -27.984375 C 40.578125 -32.734375 40.019531 -36.140625 38.90625 -38.203125 C 37.800781 -40.273438 35.96875 -41.3125 33.40625 -41.3125 Z M 33.40625 -41.3125 "/></g></g></g><g fill="#ffffff" fill-opacity="1"><g transform="translate(280.51122, 136.958818)"><g><path d="M 39.984375 -56.296875 C 41.648438 -56.296875 43.234375 -56.164062 44.734375 -55.90625 L 45.796875 -55.71875 L 44.09375 -37.703125 C 42.53125 -38.085938 40.363281 -38.28125 37.59375 -38.28125 C 33.425781 -38.28125 30.398438 -37.328125 28.515625 -35.421875 C 26.628906 -33.515625 25.6875 -30.773438 25.6875 -27.203125 L 25.6875 0 L 6.59375 0 L 6.59375 -55.328125 L 20.796875 -55.328125 L 23.78125 -46.484375 L 24.703125 -46.484375 C 26.296875 -49.410156 28.515625 -51.773438 31.359375 -53.578125 C 34.210938 -55.390625 37.085938 -56.296875 39.984375 -56.296875 Z M 39.984375 -56.296875 "/></g></g></g><g fill="#ffffff" fill-opacity="1"><g transform="translate(325.733209, 136.958818)"><g><path d="M 33.296875 0.984375 C 24.085938 0.984375 16.9375 -1.460938 11.84375 -6.359375 C 6.75 -11.265625 4.203125 -18.242188 4.203125 -27.296875 C 4.203125 -36.640625 6.5625 -43.804688 11.28125 -48.796875 C 16 -53.796875 22.738281 -56.296875 31.5 -56.296875 C 39.832031 -56.296875 46.269531 -54.125 50.8125 -49.78125 C 55.351562 -45.4375 57.625 -39.175781 57.625 -31 L 57.625 -22.515625 L 23.484375 -22.515625 C 23.617188 -19.421875 24.75 -16.992188 26.875 -15.234375 C 29.007812 -13.472656 31.914062 -12.59375 35.59375 -12.59375 C 38.945312 -12.59375 42.03125 -12.910156 44.84375 -13.546875 C 47.664062 -14.179688 50.71875 -15.265625 54 -16.796875 L 54 -3.078125 C 51.007812 -1.546875 47.914062 -0.488281 44.71875 0.09375 C 41.53125 0.6875 37.722656 0.984375 33.296875 0.984375 Z M 32.171875 -43.3125 C 29.929688 -43.3125 28.050781 -42.601562 26.53125 -41.1875 C 25.019531 -39.769531 24.132812 -37.546875 23.875 -34.515625 L 40.28125 -34.515625 C 40.21875 -37.191406 39.460938 -39.328125 38.015625 -40.921875 C 36.566406 -42.515625 34.617188 -43.3125 32.171875 -43.3125 Z M 32.171875 -43.3125 "/></g></g></g><g fill="#ffffff" fill-opacity="1"><g transform="translate(385.847188, 136.958818)"><g><path d="M 58.796875 -55.328125 L 58.796875 -46.09375 L 51.21875 -43.3125 C 52.257812 -41.425781 52.78125 -39.226562 52.78125 -36.71875 C 52.78125 -30.757812 50.6875 -26.132812 46.5 -22.84375 C 42.320312 -19.5625 36.082031 -17.921875 27.78125 -17.921875 C 25.726562 -17.921875 24.101562 -18.050781 22.90625 -18.3125 C 22.445312 -17.46875 22.21875 -16.671875 22.21875 -15.921875 C 22.21875 -14.972656 22.984375 -14.242188 24.515625 -13.734375 C 26.046875 -13.234375 28.046875 -12.984375 30.515625 -12.984375 L 39.703125 -12.984375 C 52.097656 -12.984375 58.296875 -7.757812 58.296875 2.6875 C 58.296875 9.425781 55.421875 14.664062 49.671875 18.40625 C 43.929688 22.15625 35.867188 24.03125 25.484375 24.03125 C 17.640625 24.03125 11.59375 22.71875 7.34375 20.09375 C 3.101562 17.46875 0.984375 13.703125 0.984375 8.796875 C 0.984375 2.179688 5.082031 -2.082031 13.28125 -4 C 11.59375 -4.71875 10.117188 -5.875 8.859375 -7.46875 C 7.609375 -9.0625 6.984375 -10.640625 6.984375 -12.203125 C 6.984375 -13.929688 7.453125 -15.453125 8.390625 -16.765625 C 9.335938 -18.085938 11.3125 -19.660156 14.3125 -21.484375 C 11.445312 -22.753906 9.191406 -24.738281 7.546875 -27.4375 C 5.898438 -30.144531 5.078125 -33.4375 5.078125 -37.3125 C 5.078125 -43.332031 7.128906 -48 11.234375 -51.3125 C 15.335938 -54.632812 21.195312 -56.296875 28.8125 -56.296875 C 29.820312 -56.296875 31.5625 -56.179688 34.03125 -55.953125 C 36.507812 -55.722656 38.332031 -55.515625 39.5 -55.328125 Z M 17.09375 6.890625 C 17.09375 8.453125 17.9375 9.710938 19.625 10.671875 C 21.320312 11.628906 23.585938 12.109375 26.421875 12.109375 C 31.035156 12.109375 34.734375 11.53125 37.515625 10.375 C 40.304688 9.21875 41.703125 7.726562 41.703125 5.90625 C 41.703125 4.445312 40.851562 3.414062 39.15625 2.8125 C 37.46875 2.207031 35.046875 1.90625 31.890625 1.90625 L 24.421875 1.90625 C 22.367188 1.90625 20.632812 2.382812 19.21875 3.34375 C 17.800781 4.300781 17.09375 5.484375 17.09375 6.890625 Z M 23.09375 -37.203125 C 23.09375 -31.546875 25.0625 -28.71875 29 -28.71875 C 30.820312 -28.71875 32.226562 -29.414062 33.21875 -30.8125 C 34.21875 -32.207031 34.71875 -34.304688 34.71875 -37.109375 C 34.71875 -42.835938 32.8125 -45.703125 29 -45.703125 C 25.0625 -45.703125 23.09375 -42.867188 23.09375 -37.203125 Z M 23.09375 -37.203125 "/></g></g></g><g fill="#ffffff" fill-opacity="1"><g transform="translate(444.740539, 136.958818)"><g><path d="M 59.421875 -27.78125 C 59.421875 -18.726562 56.988281 -11.671875 52.125 -6.609375 C 47.257812 -1.546875 40.445312 0.984375 31.6875 0.984375 C 23.289062 0.984375 16.609375 -1.601562 11.640625 -6.78125 C 6.679688 -11.957031 4.203125 -18.957031 4.203125 -27.78125 C 4.203125 -36.800781 6.632812 -43.804688 11.5 -48.796875 C 16.363281 -53.796875 23.191406 -56.296875 31.984375 -56.296875 C 37.421875 -56.296875 42.222656 -55.140625 46.390625 -52.828125 C 50.554688 -50.515625 53.769531 -47.203125 56.03125 -42.890625 C 58.289062 -38.578125 59.421875 -33.539062 59.421875 -27.78125 Z M 23.578125 -27.78125 C 23.578125 -23.03125 24.210938 -19.410156 25.484375 -16.921875 C 26.753906 -14.429688 28.890625 -13.1875 31.890625 -13.1875 C 34.847656 -13.1875 36.9375 -14.429688 38.15625 -16.921875 C 39.375 -19.410156 39.984375 -23.03125 39.984375 -27.78125 C 39.984375 -32.5 39.363281 -36.0625 38.125 -38.46875 C 36.894531 -40.882812 34.78125 -42.09375 31.78125 -42.09375 C 28.851562 -42.09375 26.753906 -40.894531 25.484375 -38.5 C 24.210938 -36.101562 23.578125 -32.53125 23.578125 -27.78125 Z M 23.578125 -27.78125 "/></g></g></g><g fill="#ffffff" fill-opacity="1"><g transform="translate(506.758768, 136.958818)"><g><path d="M 4.203125 -8.109375 C 4.203125 -11.097656 5.085938 -13.40625 6.859375 -15.03125 C 8.628906 -16.664062 11.207031 -17.484375 14.59375 -17.484375 C 17.820312 -17.484375 20.296875 -16.664062 22.015625 -15.03125 C 23.742188 -13.40625 24.609375 -11.097656 24.609375 -8.109375 C 24.609375 -5.179688 23.71875 -2.894531 21.9375 -1.25 C 20.164062 0.394531 17.71875 1.21875 14.59375 1.21875 C 11.375 1.21875 8.835938 0.40625 6.984375 -1.21875 C 5.128906 -2.84375 4.203125 -5.140625 4.203125 -8.109375 Z M 4.203125 -8.109375 "/></g></g></g><g fill="#ffffff" fill-opacity="1"><g transform="translate(533.96389, 136.958818)"><g><path d="M 5.171875 24.03125 C 3.609375 24.03125 1.8125 23.90625 -0.21875 23.65625 C -2.25 23.414062 -3.867188 23.128906 -5.078125 22.796875 L -5.078125 7.90625 C -2.992188 8.5 -1.039062 8.796875 0.78125 8.796875 C 4.65625 8.796875 6.59375 6.023438 6.59375 0.484375 L 6.59375 -55.328125 L 25.6875 -55.328125 L 25.6875 4.5 C 25.6875 10.582031 23.898438 15.359375 20.328125 18.828125 C 16.765625 22.296875 11.710938 24.03125 5.171875 24.03125 Z M 6.109375 -69.09375 C 6.109375 -71.957031 6.90625 -74.085938 8.5 -75.484375 C 10.09375 -76.890625 12.664062 -77.59375 16.21875 -77.59375 C 19.757812 -77.59375 22.34375 -76.875 23.96875 -75.4375 C 25.601562 -74.007812 26.421875 -71.894531 26.421875 -69.09375 C 26.421875 -63.488281 23.019531 -60.6875 16.21875 -60.6875 C 9.476562 -60.6875 6.109375 -63.488281 6.109375 -69.09375 Z M 6.109375 -69.09375 "/></g></g></g><g fill="#ffffff" fill-opacity="1"><g transform="translate(564.684499, 136.958818)"><g><path d="M 39.796875 0.984375 C 36.992188 0.984375 34.484375 0.519531 32.265625 -0.40625 C 30.054688 -1.34375 27.863281 -3.015625 25.6875 -5.421875 L 24.8125 -5.421875 C 25.394531 -1.546875 25.6875 0.863281 25.6875 1.8125 L 25.6875 24.03125 L 6.59375 24.03125 L 6.59375 -55.328125 L 22.125 -55.328125 L 24.8125 -48.296875 L 25.6875 -48.296875 C 29.226562 -53.628906 34.125 -56.296875 40.375 -56.296875 C 46.5 -56.296875 51.300781 -53.753906 54.78125 -48.671875 C 58.269531 -43.597656 60.015625 -36.632812 60.015625 -27.78125 C 60.015625 -18.863281 58.195312 -11.835938 54.5625 -6.703125 C 50.9375 -1.578125 46.015625 0.984375 39.796875 0.984375 Z M 33.40625 -41.3125 C 30.601562 -41.3125 28.640625 -40.304688 27.515625 -38.296875 C 26.390625 -36.296875 25.78125 -33.328125 25.6875 -29.390625 L 25.6875 -27.875 C 25.6875 -23.125 26.320312 -19.691406 27.59375 -17.578125 C 28.863281 -15.460938 30.863281 -14.40625 33.59375 -14.40625 C 36.03125 -14.40625 37.800781 -15.453125 38.90625 -17.546875 C 40.019531 -19.648438 40.578125 -23.128906 40.578125 -27.984375 C 40.578125 -32.734375 40.019531 -36.140625 38.90625 -38.203125 C 37.800781 -40.273438 35.96875 -41.3125 33.40625 -41.3125 Z M 33.40625 -41.3125 "/></g></g></g></svg>