<svg xmlns="http://www.w3.org/2000/svg" fill="none" viewBox="-2.5 -2.5 45 45" height="45" width="45"><g id="facebook-1--media-facebook-social"><path id="Vector" stroke="#000000" stroke-linecap="round" stroke-linejoin="round" d="M1.4285714285714286 35.714285714285715v-31.42857142857143c0 -0.7577714285714287 0.30102 -1.4844857142857142 0.836837142857143 -2.0203057142857146C2.8012285714285716 1.7295914285714287 3.527942857142857 1.4285714285714286 4.285714285714286 1.4285714285714286h31.42857142857143c0.7577142857142857 0 1.4845714285714284 0.30102 2.020285714285714 0.836837142857143 0.5357142857142857 0.5358200000000001 0.8368571428571429 1.2625342857142856 0.8368571428571429 2.0203057142857146v31.42857142857143c0 0.7577142857142857 -0.30114285714285716 1.4845714285714284 -0.8368571428571429 2.020285714285714s-1.2625714285714287 0.8368571428571429 -2.020285714285714 0.8368571428571429h-8.571428571428571V25.02857142857143h2.0285714285714285c0.4622857142857143 0 0.9054285714285715 -0.18362857142857142 1.2322857142857144 -0.5104571428571429 0.32685714285714285 -0.32685714285714285 0.5105714285714286 -0.7701714285714286 0.5105714285714286 -1.2324v-2.2c0 -0.2288857142857143 -0.04514285714285715 -0.4555142857142857 -0.13257142857142856 -0.6669714285714287 -0.08771428571428572 -0.21145714285714287 -0.216 -0.4035714285714285 -0.378 -0.5654285714285714 -0.1617142857142857 -0.16182857142857143 -0.354 -0.2902 -0.5654285714285714 -0.37779999999999997 -0.2114285714285714 -0.08757142857142858 -0.438 -0.13265714285714286 -0.6668571428571428 -0.13265714285714286h-1.9142857142857144v-2.6857142857142855c0 -2.4 1.0857142857142859 -2.4 2.1714285714285717 -2.4h1.4c0.23 0.009485714285714287 0.4591428571428572 -0.03168571428571428 0.6714285714285714 -0.12054285714285715 0.2122857142857143 -0.08885714285714286 0.4025714285714286 -0.22328571428571428 0.5571428571428572 -0.3937428571428571 0.166 -0.15805714285714287 0.29742857142857143 -0.3488857142857143 0.386 -0.5603428571428571 0.08857142857142858 -0.2114857142857143 0.13228571428571428 -0.43900000000000006 0.1282857142857143 -0.6682285714285715v-2.1142857142857143c0.007714285714285715 -0.23265714285714287 -0.03057142857142857 -0.4645428571428572 -0.11285714285714286 -0.6823714285714285 -0.082 -0.21785714285714286 -0.206 -0.4174 -0.3654285714285715 -0.5872285714285714 -0.15914285714285714 -0.1698 -0.3502857142857143 -0.30660000000000004 -0.5622857142857143 -0.4025142857142857S31.089714285714283 8.578800000000001 30.85714285714286 8.571428571428571H27.571428571428573c-0.9587142857142857 -0.03605714285714286 -1.9138285714285714 0.13645714285714286 -2.7994000000000003 0.5056 -0.8855428571428572 0.36911428571428573 -1.6804000000000001 0.9260857142857142 -2.329657142857143 1.6323999999999999 -0.6492857142857144 0.7063428571428572 -1.1374857142857142 1.5451714285714286 -1.4309142857142858 2.4586 -0.2934285714285714 0.9134285714285714 -0.3850571428571429 1.879657142857143 -0.2686 2.831971428571429v3.3428571428571425h-1.8285714285714287c-0.23125714285714286 -0.0038 -0.4609714285714286 0.03848571428571428 -0.6757428571428572 0.12437142857142858 -0.21477142857142859 0.08588571428571429 -0.4102857142857143 0.21365714285714285 -0.5751428571428572 0.3758857142857143 -0.16488571428571427 0.16222857142857142 -0.29582857142857144 0.3556285714285714 -0.3852 0.5689714285714286C17.188828571428573 20.62542857142857 17.142828571428574 20.854428571428574 17.142857142857142 21.085714285714285v2.2c-0.00002857142857142857 0.23128571428571426 0.04597142857142857 0.4602857142857143 0.13534285714285715 0.6736285714285715 0.08937142857142857 0.21334285714285714 0.2203142857142857 0.40674285714285713 0.3852 0.5689714285714286 0.16485714285714287 0.16222857142857142 0.36037142857142856 0.29000000000000004 0.5751428571428572 0.3758857142857143 0.21477142857142859 0.08588571428571429 0.4444857142857143 0.12817142857142858 0.6757428571428572 0.12437142857142858h1.8285714285714287v13.542857142857144H4.285714285714286c-0.7577714285714287 0 -1.4844857142857142 -0.30114285714285716 -2.0203057142857146 -0.8368571428571429C1.7295914285714287 37.19885714285714 1.4285714285714286 36.472 1.4285714285714286 35.714285714285715Z" stroke-width="5"></path></g></svg>