<svg xmlns="http://www.w3.org/2000/svg" fill="none" viewBox="-2.5 -2.5 45 45" height="45" width="45"><g id="floppy-disk--disk-floppy-electronics-device-disc-computer-storage"><path id="Vector" stroke="#000000" stroke-linecap="round" stroke-linejoin="round" d="M38.57142857142857 35.714285714285715c0 0.7577142857142857 -0.30114285714285716 1.4845714285714284 -0.8368571428571429 2.020285714285714s-1.2625714285714287 0.8368571428571429 -2.020285714285714 0.8368571428571429h-31.42857142857143c-0.7577714285714287 0 -1.4844857142857142 -0.30114285714285716 -2.0203057142857146 -0.8368571428571429C1.7295914285714287 37.19885714285714 1.4285714285714286 36.472 1.4285714285714286 35.714285714285715V14.028571428571428c0.0031571428571428575 -0.7495428571428572 0.3007314285714286 -1.4678285714285715 0.8285714285714285 -2L12.028571428571428 2.257142857142857c0.5321714285714286 -0.52784 1.250457142857143 -0.8254142857142858 2 -0.8285714285714285h21.685714285714287c0.7577142857142857 0 1.4845714285714284 0.30102 2.020285714285714 0.836837142857143 0.5357142857142857 0.5358200000000001 0.8368571428571429 1.2625342857142856 0.8368571428571429 2.0203057142857146v31.42857142857143Z" stroke-width="5"></path><path id="Vector_2" stroke="#000000" stroke-linecap="round" stroke-linejoin="round" d="M30 38.57142857142857V25.714285714285715c0 -0.3788857142857143 -0.15057142857142858 -0.742257142857143 -0.4182857142857143 -1.010142857142857C29.313714285714287 24.436228571428572 28.950285714285716 24.285714285714285 28.571428571428573 24.285714285714285H11.428571428571429c-0.3788857142857143 0 -0.742257142857143 0.1505142857142857 -1.010142857142857 0.4184285714285714C10.150514285714285 24.97202857142857 10 25.3354 10 25.714285714285715v12.857142857142858" stroke-width="5"></path><path id="Vector_3" stroke="#000000" stroke-linecap="round" stroke-linejoin="round" d="M30 1.4285714285714286V11.428571428571429c0 0.3788857142857143 -0.15057142857142858 0.742257142857143 -0.4182857142857143 1.010142857142857 -0.268 0.2679142857142857 -0.6314285714285715 0.4184285714285714 -1.0102857142857145 0.4184285714285714H17.142857142857142c-0.3788857142857143 0 -0.742257142857143 -0.1505142857142857 -1.010142857142857 -0.4184285714285714C15.864799999999999 12.17082857142857 15.714285714285715 11.807457142857142 15.714285714285715 11.428571428571429V1.4285714285714286" stroke-width="5"></path></g></svg>