<svg xmlns="http://www.w3.org/2000/svg" fill="none" viewBox="-2.5 -2.5 45 45" height="45" width="45"><g id="folder-check--remove-check-folder"><path id="Vector" stroke="#000000" stroke-linecap="round" stroke-linejoin="round" d="M1.4285714285714286 34.99971428571429V4.999828571428572c0 -0.7577714285714287 0.30102 -1.4844857142857142 0.836837142857143 -2.020314285714286C2.8012285714285716 2.443694285714286 3.527942857142857 2.142674285714286 4.285714285714286 2.142674285714286h10.542857142857143c0.6526571428571428 -0.019014285714285716 1.2921714285714285 0.1860942857142857 1.8120285714285715 0.5811828571428572 0.5198285714285714 0.39508571428571426 0.8886857142857143 0.9563142857142858 1.0451142857142857 1.590257142857143l0.8857142857142857 3.5428571428571427h17.142857142857142c0.7577142857142857 0 1.4845714285714284 0.301 2.020285714285714 0.8368285714285714 0.5357142857142857 0.5358285714285714 0.8368571428571429 1.2625428571428572 0.8368571428571429 2.020314285714286v24.2856c0 0.758 -0.30114285714285716 1.4845714285714284 -0.8368571428571429 2.020285714285714 -0.5357142857142857 0.536 -1.2625714285714287 0.8368571428571429 -2.020285714285714 0.8368571428571429h-31.42857142857143c-0.7577714285714287 0 -1.4844857142857142 -0.3008571428571429 -2.0203057142857146 -0.8368571428571429C1.7295914285714287 36.48428571428572 1.4285714285714286 35.757714285714286 1.4285714285714286 34.99971428571429Z" stroke-width="5"></path><path id="Vector_2" stroke="#000000" stroke-linecap="round" stroke-linejoin="round" d="M12.857142857142858 25.714285714285715 17.142857142857142 28.571428571428573l8.571428571428571 -11.428571428571429" stroke-width="5"></path></g></svg>