<svg xmlns="http://www.w3.org/2000/svg" fill="none" viewBox="-2.5 -2.5 45 45" height="45" width="45"><g id="graph-bar-increase--up-product-performance-increase-arrow-graph-business-chart"><path id="Vector" stroke="#000000" stroke-linecap="round" stroke-linejoin="round" d="m3.542828571428571 18.685885714285718 32.85717142857143 -14.942857142857145" stroke-width="5"></path><path id="Vector_2" stroke="#000000" stroke-linecap="round" stroke-linejoin="round" d="m30.257142857142856 1.4285714285714286 6.142857142857142 2.3142857142857145 -2.285714285714286 6.142857142857142" stroke-width="5"></path><path id="Vector_3" stroke="#000000" stroke-linecap="round" stroke-linejoin="round" d="M37.85714285714286 38.57142857142857h-7.142857142857143v-20c0 -0.3788857142857143 0.15057142857142858 -0.742257142857143 0.4182857142857143 -1.010142857142857C31.40057142857143 17.29337142857143 31.764 17.142857142857142 32.142857142857146 17.142857142857142h4.285714285714286c0.37885714285714284 0 0.7422857142857142 0.1505142857142857 1.0102857142857145 0.4184285714285714 0.26771428571428574 0.2678857142857143 0.4182857142857143 0.6312571428571429 0.4182857142857143 1.010142857142857v20Z" stroke-width="5"></path><path id="Vector_4" stroke="#000000" stroke-linecap="round" stroke-linejoin="round" d="M23.571428571428573 38.57142857142857h-7.142857142857143l0 -15.714285714285715c0 -0.3788857142857143 0.1505142857142857 -0.742257142857143 0.4184285714285714 -1.010142857142857C17.114885714285716 21.579085714285714 17.478257142857146 21.42857142857143 17.857142857142858 21.42857142857143h4.285714285714286c0.3788857142857143 0 0.742257142857143 0.1505142857142857 1.010142857142857 0.4184285714285714 0.2679142857142857 0.2678857142857143 0.4184285714285714 0.6312571428571429 0.4184285714285714 1.010142857142857v15.714285714285715Z" stroke-width="5"></path><path id="Vector_5" stroke="#000000" stroke-linecap="round" stroke-linejoin="round" d="M9.285714285714286 38.57142857142857H2.142857142857143l0 -11.428571428571429c0 -0.3788857142857143 0.15051142857142857 -0.742257142857143 0.41842 -1.010142857142857C2.8291857142857144 25.864800000000002 3.1925428571428576 25.714285714285715 3.5714285714285716 25.714285714285715h4.285714285714286c0.3788857142857143 0 0.742257142857143 0.1505142857142857 1.010142857142857 0.4184285714285714 0.2679142857142857 0.2678857142857143 0.4184285714285714 0.6312571428571429 0.4184285714285714 1.010142857142857l0 11.428571428571429Z" stroke-width="5"></path></g></svg>