<svg xmlns="http://www.w3.org/2000/svg" fill="none" viewBox="-2.5 -2.5 45 45" height="45" width="45"><g id="happy-face--smiley-chat-message-smile-emoji-face-satisfied"><path id="Vector" stroke="#000000" stroke-linecap="round" stroke-linejoin="round" d="M20 38.57142857142857c10.256857142857143 0 18.571428571428573 -8.314571428571428 18.571428571428573 -18.571428571428573C38.57142857142857 9.743285714285713 30.256857142857143 1.4285714285714286 20 1.4285714285714286 9.743285714285713 1.4285714285714286 1.4285714285714286 9.743285714285713 1.4285714285714286 20c0 10.256857142857143 8.314714285714285 18.571428571428573 18.571428571428573 18.571428571428573Z" stroke-width="5"></path><path id="Vector_2" stroke="#000000" stroke-linecap="round" stroke-linejoin="round" d="M10.571285714285715 22.857142857142858c1.4285714285714286 5.142857142857143 7.142857142857143 8.285714285714286 12.285714285714285 6.857142857142857 3.1428571428571432 -1.142857142857143 5.714285714285714 -3.7142857142857144 6.5715714285714295 -6.857142857142857" stroke-width="5"></path><g id="Group 623"><path id="Vector_3" stroke="#000000" stroke-linecap="round" stroke-linejoin="round" d="M13.571428571428571 15.714285714285715c-0.3944857142857143 0 -0.7142857142857143 -0.31980000000000003 -0.7142857142857143 -0.7142857142857143S13.176942857142858 14.285714285714286 13.571428571428571 14.285714285714286" stroke-width="5"></path><path id="Vector_4" stroke="#000000" stroke-linecap="round" stroke-linejoin="round" d="M13.571428571428571 15.714285714285715c0.3944857142857143 0 0.7142857142857143 -0.31980000000000003 0.7142857142857143 -0.7142857142857143S13.965914285714286 14.285714285714286 13.571428571428571 14.285714285714286" stroke-width="5"></path></g><g id="Group 624"><path id="Vector_5" stroke="#000000" stroke-linecap="round" stroke-linejoin="round" d="M26.42857142857143 15.714285714285715c-0.3944857142857143 0 -0.7142857142857143 -0.31980000000000003 -0.7142857142857143 -0.7142857142857143S26.034085714285712 14.285714285714286 26.42857142857143 14.285714285714286" stroke-width="5"></path><path id="Vector_6" stroke="#000000" stroke-linecap="round" stroke-linejoin="round" d="M26.42857142857143 15.714285714285715c0.3944857142857143 0 0.7142857142857143 -0.31980000000000003 0.7142857142857143 -0.7142857142857143S26.823057142857145 14.285714285714286 26.42857142857143 14.285714285714286" stroke-width="5"></path></g></g></svg>