<svg xmlns="http://www.w3.org/2000/svg" fill="none" viewBox="-2.5 -2.5 45 45" height="45" width="45"><g id="instagram"><g id="Group 4546"><path id="Vector" stroke="#000000" stroke-linecap="round" stroke-linejoin="round" d="M29.52342857142857 10.411542857142857c-0.3945714285714286 0 -0.7142857142857143 -0.31980000000000003 -0.7142857142857143 -0.7142857142857143s0.31971428571428573 -0.7142857142857143 0.7142857142857143 -0.7142857142857143" stroke-width="5"></path><path id="Vector_2" stroke="#000000" stroke-linecap="round" stroke-linejoin="round" d="M29.52342857142857 10.411542857142857c0.3945714285714286 0 0.7142857142857143 -0.31980000000000003 0.7142857142857143 -0.7142857142857143s-0.31971428571428573 -0.7142857142857143 -0.7142857142857143 -0.7142857142857143" stroke-width="5"></path></g><path id="Rectangle 2" stroke="#000000" stroke-linecap="round" stroke-linejoin="round" d="M2.452217142857143 9.804028571428573c0 -4.060085714285714 3.291354285714286 -7.351462857142857 7.351468571428572 -7.351462857142857h19.60402857142857c4.0600000000000005 0 7.351428571428571 3.2913771428571432 7.351428571428571 7.351462857142857v19.60397142857143c0 4.0600000000000005 -3.2914285714285714 7.351428571428571 -7.351428571428571 7.351428571428571H9.803685714285715c-4.0601142857142865 0 -7.351468571428572 -3.2914285714285714 -7.351468571428572 -7.351428571428571V9.804028571428573Z" stroke-width="5"></path><path id="Ellipse 11" stroke="#000000" stroke-linecap="round" stroke-linejoin="round" d="M12.32 19.605714285714285a7.285714285714286 7.285714285714286 0 1 0 14.571428571428571 0 7.285714285714286 7.285714285714286 0 1 0 -14.571428571428571 0" stroke-width="5"></path></g></svg>