<svg xmlns="http://www.w3.org/2000/svg" fill="none" viewBox="-2.5 -2.5 45 45" height="45" width="45"><g id="like-1--reward-social-up-rating-media-like-thumb-hand"><path id="Vector" stroke="#000000" stroke-linecap="round" stroke-linejoin="round" d="M2.988857142857143 16.611314285714286h6.717942857142857v17.886114285714285H2.988857142857143c-0.3758914285714286 0 -0.7363828571428572 -0.14914285714285716 -1.0021742857142857 -0.4151428571428572 -0.2657942857142857 -0.26571428571428574 -0.4151142857142857 -0.6262857142857143 -0.4151142857142857 -1.002V18.0286c0 -0.3758857142857143 0.14932 -0.7363714285714287 0.4151142857142857 -1.0021714285714287 0.26579142857142857 -0.2657714285714286 0.6262828571428571 -0.4151142857142857 1.0021742857142857 -0.4151142857142857v0Z" stroke-width="5"></path><path id="Vector_2" stroke="#000000" stroke-linecap="round" stroke-linejoin="round" d="m9.706685714285713 16.61022857142857 7.1998 -11.508371428571428c0.2790285714285714 -0.4548571428571429 0.6711142857142857 -0.8297142857142857 1.1380571428571429 -1.0880285714285713 0.4669428571428571 -0.2583142857142857 0.9928571428571428 -0.39125714285714286 1.5264571428571427 -0.38594285714285714 0.4202571428571429 -0.01517142857142857 0.8392857142857143 0.05405714285714286 1.232314285714286 0.2036 0.3930571428571429 0.14954285714285714 0.7521142857142856 0.37634285714285715 1.0560285714285715 0.6670285714285714 0.30388571428571426 0.29068571428571427 0.5464285714285715 0.6393142857142857 0.7132571428571429 1.0253428571428573 0.16685714285714287 0.386 0.2546285714285714 0.8015428571428572 0.2581428571428572 1.222057142857143v8.2486h12.443828571428572c0.4597142857142857 0.014914285714285713 0.9111428571428573 0.12697142857142857 1.3245714285714287 0.32885714285714285 0.4134285714285714 0.20185714285714287 0.7794285714285714 0.4889142857142857 1.074 0.8423428571428573 0.2945714285714286 0.3534285714285714 0.5108571428571428 0.7651714285714286 0.6348571428571429 1.2082000000000002 0.124 0.44302857142857144 0.15285714285714286 0.9072857142857143 0.08457142857142858 1.3622285714285713l-2.267714285714286 14.626428571428573c-0.09657142857142856 0.7817142857142858 -0.47571428571428576 1.5011428571428571 -1.0654285714285714 2.023142857142857 -0.5897142857142857 0.522 -1.3499999999999999 0.8105714285714286 -2.137714285714286 0.8114285714285714H14.32702857142857c-0.8851714285714285 0.0034285714285714284 -1.758857142857143 -0.2002857142857143 -2.5511142857142857 -0.5954285714285714l-2.0408857142857144 -1.0202857142857142" stroke-width="5"></path><path id="Vector_3" stroke="#000000" stroke-linecap="round" stroke-linejoin="round" d="M9.706685714285713 16.61062857142857v17.88622857142857" stroke-width="5"></path></g></svg>