<svg xmlns="http://www.w3.org/2000/svg" fill="none" viewBox="-2.5 -2.5 45 45" height="45" width="45"><g id="linkedin--network-linkedin-professional"><path id="Vector" stroke="#000000" stroke-linecap="round" stroke-linejoin="round" d="M10.21037142857143 5.048514285714286c0.007685714285714286 0.9879428571428571 -0.3736285714285714 1.9392285714285715 -1.0615714285714286 2.648342857142857 -0.6879142857142858 0.7090857142857143 -1.6272285714285715 1.119057142857143 -2.6149428571428572 1.1413142857142857 -0.9856571428571429 -0.03617142857142857 -1.9197428571428572 -0.4496 -2.609257142857143 -1.1549142857142858 -0.6894857142857144 -0.7052857142857143 -1.0816914285714285 -1.6484857142857143 -1.0955342857142856 -2.6347428571428573 0.04284857142857143 -0.9608571428571429 0.4494485714285714 -1.8695142857142857 1.1374199999999999 -2.5417057142857145 0.6879428571428572 -0.6722 1.6057714285714284 -1.0576571428571429 2.5673714285714286 -1.078237142857143 0.9588285714285715 0.020962857142857144 1.8734 0.4073771428571428 2.556771428571429 1.0802428571428573 0.6833714285714286 0.6728714285714286 1.083942857142857 1.5813571428571431 1.1197428571428572 2.5397ZM3.2249999999999996 15.569028571428571c0 -2.1776285714285715 1.3857714285714287 -1.838257142857143 3.3088571428571427 -1.838257142857143 1.9231142857142856 0 3.2805999999999997 -0.33937142857142855 3.2805999999999997 1.838257142857143v21.210685714285713c0 2.206 -1.3857714285714287 1.7534285714285716 -3.2805999999999997 1.7534285714285716 -1.8948 0 -3.3088571428571427 0.4525714285714286 -3.3088571428571427 -1.7534285714285716V15.569028571428571Z" stroke-width="5"></path><path id="Vector_2" stroke="#000000" stroke-linecap="round" stroke-linejoin="round" d="M15.52717142857143 15.569342857142859c0 -1.2160857142857144 0.4524857142857143 -1.6685714285714286 1.1595142857142857 -1.8099714285714286 0.7070285714285715 -0.14142857142857143 3.1391714285714287 0 3.9875999999999996 0 0.8484285714285714 0 1.1878 1.3857428571428572 1.1595142857142857 2.432142857142857 0.7257428571428572 -0.974 1.6892857142857145 -1.7454857142857143 2.798457142857143 -2.2406571428571427 1.1091428571428572 -0.49517142857142854 2.3268 -0.6974285714285715 3.5364857142857145 -0.5874285714285714 1.1878285714285715 -0.07262857142857143 2.3778285714285716 0.1054857142857143 3.4924 0.5227142857142857 1.1142857142857143 0.4172285714285714 2.128857142857143 1.0642857142857143 2.976857142857143 1.8991142857142858 0.8482857142857143 0.8348285714285715 1.5111428571428573 1.8387428571428572 1.9460000000000002 2.946542857142857s0.6317142857142857 2.2946857142857144 0.5780000000000001 3.4835428571428575v14.4798c0 2.206 -1.3574285714285714 1.7534285714285716 -3.280571428571429 1.7534285714285716s-3.280571428571429 0.4525714285714286 -3.280571428571429 -1.7534285714285716V25.382828571428576c0.04971428571428571 -0.5822285714285714 -0.026285714285714287 -1.1683142857142856 -0.22314285714285714 -1.7184857142857142 -0.19685714285714287 -0.5501714285714286 -0.51 -1.0515428571428571 -0.9177142857142857 -1.4700571428571427s-0.9008285714285715 -0.7443714285714286 -1.4457142857142857 -0.9554571428571428c-0.5448571428571429 -0.2110571428571429 -1.1287714285714285 -0.30242857142857144 -1.7120857142857144 -0.26782857142857147 -0.5806 -0.014742857142857143 -1.1577142857142857 0.094 -1.6931428571428573 0.3190571428571429 -0.5354 0.2250285714285714 -1.0169142857142859 0.5612571428571429 -1.4126285714285716 0.9863714285714286 -0.3956857142857143 0.4251428571428571 -0.6966 0.9294571428571429 -0.8827428571428572 1.4796 -0.18614285714285714 0.5501428571428572 -0.2533142857142857 1.1335714285714287 -0.19705714285714288 1.7116285714285715V36.78c0 2.206 -1.3857714285714287 1.7534285714285716 -3.308885714285714 1.7534285714285716 -1.9230857142857143 0 -3.280571428571429 0.4525714285714286 -3.280571428571429 -1.7534285714285716V15.569342857142859Z" stroke-width="5"></path></g></svg>