<svg xmlns="http://www.w3.org/2000/svg" fill="none" viewBox="-2.5 -2.5 45 45" height="45" width="45"><g id="printer--scan-device-electronics-printer-print-computer"><path id="Vector" stroke="#000000" stroke-linecap="round" stroke-linejoin="round" d="M30 31.42857142857143h5.714285714285714c0.7577142857142857 0 1.4845714285714284 -0.30114285714285716 2.020285714285714 -0.8368571428571429S38.57142857142857 29.32914285714286 38.57142857142857 28.571428571428573V15.714285714285715c0 -0.7577714285714287 -0.30114285714285716 -1.4844857142857142 -0.8368571428571429 -2.020314285714286C37.19885714285714 13.158171428571428 36.472 12.857142857142858 35.714285714285715 12.857142857142858h-31.42857142857143c-0.7577714285714287 0 -1.4844857142857142 0.3010285714285714 -2.0203057142857146 0.8368285714285714C1.7295914285714287 14.229800000000001 1.4285714285714286 14.956514285714285 1.4285714285714286 15.714285714285715V28.571428571428573c0 0.7577142857142857 0.30102 1.4845714285714284 0.836837142857143 2.020285714285714C2.8012285714285716 31.127428571428574 3.527942857142857 31.42857142857143 4.285714285714286 31.42857142857143h5.714285714285714" stroke-width="5"></path><path id="Vector_2" stroke="#000000" stroke-linecap="round" stroke-linejoin="round" d="M10 27.142857142857142V37.142857142857146c0 0.37885714285714284 0.1505142857142857 0.7422857142857142 0.4184285714285714 1.0102857142857145 0.2678857142857143 0.26771428571428574 0.6312571428571429 0.4182857142857143 1.010142857142857 0.4182857142857143h17.142857142857142c0.37885714285714284 0 0.7422857142857142 -0.15057142857142858 1.0102857142857145 -0.4182857142857143 0.26771428571428574 -0.268 0.4182857142857143 -0.6314285714285715 0.4182857142857143 -1.0102857142857145V27.142857142857142h-20Z" stroke-width="5"></path><path id="Vector_3" stroke="#000000" stroke-linecap="round" stroke-linejoin="round" d="M30 12.857142857142858V2.857142857142857c0 -0.37888 -0.15057142857142858 -0.7422428571428571 -0.4182857142857143 -1.0101514285714286C29.313714285714287 1.57908 28.950285714285716 1.4285714285714286 28.571428571428573 1.4285714285714286H11.428571428571429c-0.3788857142857143 0 -0.742257142857143 0.15050857142857144 -1.010142857142857 0.41842C10.150514285714285 2.1149 10 2.4782628571428575 10 2.857142857142857v10" stroke-width="5"></path><path id="Vector_4" stroke="#000000" stroke-linecap="round" stroke-linejoin="round" d="M31.42857142857143 20h-2.857142857142857" stroke-width="5"></path></g></svg>