<svg xmlns="http://www.w3.org/2000/svg" fill="none" viewBox="-2.5 -2.5 45 45" height="45" width="45"><g id="recycle-bin-2--remove-delete-empty-bin-trash-garbage"><path id="Vector" stroke="#000000" stroke-linecap="round" stroke-linejoin="round" d="M2.857142857142857 10h34.285714285714285" stroke-width="5"></path><path id="Vector_2" stroke="#000000" stroke-linecap="round" stroke-linejoin="round" d="M7.142857142857143 10h25.714285714285715v25.714285714285715c0 0.7577142857142857 -0.30114285714285716 1.4845714285714284 -0.8368571428571429 2.020285714285714s-1.2625714285714287 0.8368571428571429 -2.020285714285714 0.8368571428571429h-20c-0.7577714285714287 0 -1.4844857142857142 -0.30114285714285716 -2.020314285714286 -0.8368571428571429C7.443885714285715 37.19885714285714 7.142857142857143 36.472 7.142857142857143 35.714285714285715v-25.714285714285715Z" stroke-width="5"></path><path id="Vector_3" stroke="#000000" stroke-linecap="round" stroke-linejoin="round" d="M12.857142857142858 10V8.571428571428571c0 -1.8943999999999999 0.7525428571428572 -3.7112285714285713 2.0920857142857145 -5.050771428571429C16.28877142857143 2.18112 18.105600000000003 1.4285714285714286 20 1.4285714285714286c1.8943999999999999 0 3.7112285714285713 0.7525485714285715 5.050771428571429 2.0920857142857145C26.39031428571429 4.860200000000001 27.142857142857142 6.677028571428571 27.142857142857142 8.571428571428571v1.4285714285714286" stroke-width="5"></path><path id="Vector_4" stroke="#000000" stroke-linecap="round" stroke-linejoin="round" d="M15.714285714285715 18.5756V30.00857142857143" stroke-width="5"></path><path id="Vector_5" stroke="#000000" stroke-linecap="round" stroke-linejoin="round" d="M24.285714285714285 18.5756V30.00857142857143" stroke-width="5"></path></g></svg>