<svg xmlns="http://www.w3.org/2000/svg" fill="none" viewBox="-2.5 -2.5 45 45" height="45" width="45"><g id="smiley-crying-1"><path id="Vector" stroke="#000000" stroke-linecap="round" stroke-linejoin="round" d="M20 38.57142857142857c10.256857142857143 0 18.571428571428573 -8.314571428571428 18.571428571428573 -18.571428571428573C38.57142857142857 9.743285714285713 30.256857142857143 1.4285714285714286 20 1.4285714285714286 9.743285714285713 1.4285714285714286 1.4285714285714286 9.743285714285713 1.4285714285714286 20c0 10.256857142857143 8.314714285714285 18.571428571428573 18.571428571428573 18.571428571428573Z" stroke-width="5"></path><path id="Vector_2" stroke="#000000" stroke-linecap="round" stroke-linejoin="round" d="M11.428571428571429 27.142857142857142c1.2793142857142856 -4.080228571428572 6.140714285714285 -6.573685714285714 11.002142857142857 -5.440314285714286C25.2452 22.3826 27.54797142857143 24.422714285714285 28.571428571428573 27.142857142857142" stroke-width="5"></path><path id="Vector 557" stroke="#000000" stroke-linecap="round" stroke-linejoin="round" d="M10.847857142857142 15.363c0.26282857142857147 -0.5115714285714286 1.0852 -1.4204 2.0378285714285713 -1.9704000000000002s2.150857142857143 -0.8078 2.725314285714286 -0.7796" stroke-width="5"></path><path id="Vector 559" stroke="#000000" stroke-linecap="round" stroke-linejoin="round" d="M24.388942857142858 12.6088c0.5744571428571429 -0.028171428571428573 1.7727142857142857 0.2296 2.725314285714286 0.7796 0.9526285714285714 0.55 1.7748857142857144 1.4588285714285714 2.0377428571428573 1.9704000000000002" stroke-width="5"></path></g></svg>