<svg xmlns="http://www.w3.org/2000/svg" fill="none" viewBox="-2.5 -2.5 45 45" height="45" width="45"><g id="twitter--media-twitter-social"><path id="Vector" stroke="#000000" stroke-linecap="round" stroke-linejoin="round" d="M11.428628571428572 26.8572c-2.0401714285714285 1.6024857142857143 -4.381857142857143 2.7782285714285715 -6.885714285714286 3.4570857142857143 -0.27580000000000005 0.10028571428571428 -0.5140857142857144 0.28285714285714286 -0.6824571428571429 0.5228571428571429 -0.1684 0.24028571428571427 -0.25874285714285716 0.5265714285714286 -0.25874285714285716 0.82 0 0.2934285714285714 0.09034285714285716 0.5797142857142857 0.25874285714285716 0.82 0.1683714285714286 0.24028571428571427 0.4066571428571429 0.4228571428571428 0.6824571428571429 0.5228571428571429C24.31434285714286 41.114285714285714 36.885714285714286 28.571428571428573 34.971428571428575 14.6572l3.2 -6.628571428571428h-3.7142857142857144C29.82857142857143 2.3429200000000003 17.542914285714286 2.628634285714286 19.571485714285714 14.742914285714287c0 0 -6.571428571428571 1.1714285714285715 -14.971428571428572 -7.085714285714285 -0.19431428571428572 -0.19182857142857146 -0.4395428571428572 -0.3239714285714286 -0.7066285714285715 -0.3807428571428571 -0.26708571428571426 -0.05677142857142857 -0.5448285714285714 -0.03582857142857143 -0.8003714285714285 0.06037142857142857 -0.2555457142857143 0.0962 -0.4781657142857143 0.26362857142857143 -0.6414971428571429 0.4824571428571429 -0.16332857142857143 0.2188 -0.2605257142857143 0.4798571428571428 -0.2800828571428572 0.7522 -0.8881942857142857 3.651 -0.4437028571428571 7.499142857142857 1.253437142857143 10.851514285714286 1.697142857142857 3.352371428571429 4.5354 5.988685714285714 8.003714285714286 7.434200000000001Z" stroke-width="5"></path></g></svg>