<svg xmlns="http://www.w3.org/2000/svg" fill="none" viewBox="-2.5 -2.5 45 45" height="45" width="45"><g id="whatsapp"><path id="Vector" stroke="#000000" stroke-linecap="round" stroke-linejoin="round" d="M20.000942857142856 2.51256C10.472371428571428 2.5155257142857144 2.5115028571428573 10.486657142857142 2.511545714285714 20.007371428571428 2.511562857142857 23.439799999999998 3.533142857142857 26.830428571428573 5.439857142857143 29.696857142857144L2.5061028571428574 37.50228571428571l9.824011428571428 -1.7765714285714287c2.3998 1.1728571428571428 5.035 1.7605714285714285 7.670828571428571 1.7622857142857145 9.536771428571429 0.006571428571428572 17.505057142857144 -7.954000000000001 17.505057142857144 -17.48062857142857 0 -9.515714285714285 -7.971142857142857 -17.50044 -17.505057142857144 -17.49481142857143Z" stroke-width="5"></path><path id="Vector 596" stroke="#000000" stroke-linecap="round" stroke-linejoin="round" d="M20.963857142857144 27.712057142857144c2.366771428571429 1.5193714285714286 4.8343428571428575 0.4127428571428572 6.552828571428571 -0.8689428571428572 1.1870285714285715 -0.8853142857142858 1.1476000000000002 -2.592857142857143 0.13377142857142857 -3.6721714285714286l-1.9991714285714288 -2.1282857142857146c-0.7583428571428571 0.7583428571428571 -2.2361142857142857 1.1336857142857142 -3.2628857142857144 0.8211714285714286 -2.207 -0.6716857142857143 -3.133285714285714 -1.8217142857142856 -3.8839428571428574 -2.9910571428571426 -0.8621142857142857 -1.3430285714285715 0.11145714285714287 -3.3488285714285717 0.8697999999999999 -4.107142857142858l-2.2283142857142857 -2.0343142857142857c-0.9394285714285714 -0.8575999999999999 -2.366342857142857 -1.0023142857142857 -3.186 -0.029599999999999998 -1.6217714285714286 1.9245142857142856 -2.6303714285714284 4.846342857142857 -1.4358857142857144 6.706771428571429 2.144285714285714 3.3397714285714284 5.099828571428572 6.1596 8.4398 8.303571428571429Z" stroke-width="5"></path></g></svg>